ISO-10303-21;
HEADER;
FILE_DESCRIPTION (( 'STEP AP203' ),
    '1' );
FILE_NAME ('P105216.step',
    '2014-07-24T23:49:31',
    ( 'Rick' ),
    ( 'Microsoft' ),
    'SwSTEP 2.0',
    'SolidWorks 2014',
    '' );
FILE_SCHEMA (( 'CONFIG_CONTROL_DESIGN' ));
ENDSEC;

DATA;
#1 = COORDINATED_UNIVERSAL_TIME_OFFSET ( 7, 0, .BEHIND. ) ;
#2 = AXIS2_PLACEMENT_3D ( 'NONE', #431, #407, #404 ) ;
#3 = APPROVAL_PERSON_ORGANIZATION ( #4, #390, #696 ) ;
#4 = PERSON_AND_ORGANIZATION ( #349, #36 ) ;
#5 = DATE_AND_TIME ( #6, #7 ) ;
#6 = CALENDAR_DATE ( 2014, 24, 7 ) ;
#7 = LOCAL_TIME ( 17, 49, 31.00000000000000000, #8 ) ;
#8 = COORDINATED_UNIVERSAL_TIME_OFFSET ( 7, 0, .BEHIND. ) ;
#9 = PERSON_AND_ORGANIZATION ( #349, #36 ) ;
#10 = PERSON_AND_ORGANIZATION ( #349, #36 ) ;
#11 = PERSON_AND_ORGANIZATION ( #349, #36 ) ;
#12 = APPROVAL_DATE_TIME ( #13, #394 ) ;
#13 = DATE_AND_TIME ( #15, #16 ) ;
#14 = ADVANCED_FACE ( 'NONE', ( #321 ), #313, .F. ) ;
#15 = CALENDAR_DATE ( 2014, 24, 7 ) ;
#16 = LOCAL_TIME ( 17, 49, 31.00000000000000000, #17 ) ;
#17 = COORDINATED_UNIVERSAL_TIME_OFFSET ( 7, 0, .BEHIND. ) ;
#18 = APPROVAL_PERSON_ORGANIZATION ( #19, #394, #710 ) ;
#19 = PERSON_AND_ORGANIZATION ( #349, #36 ) ;
#20 = DATE_AND_TIME ( #22, #23 ) ;
#21 = ADVANCED_FACE ( 'NONE', ( #318 ), #312, .F. ) ;
#22 = CALENDAR_DATE ( 2014, 24, 7 ) ;
#23 = LOCAL_TIME ( 17, 49, 31.00000000000000000, #24 ) ;
#24 = COORDINATED_UNIVERSAL_TIME_OFFSET ( 7, 0, .BEHIND. ) ;
#25 = PERSON_AND_ORGANIZATION ( #349, #36 ) ;
#26 = APPROVAL_DATE_TIME ( #28, #68 ) ;
#27 = ADVANCED_FACE ( 'NONE', ( #524 ), #315, .T. ) ;
#28 = DATE_AND_TIME ( #29, #30 ) ;
#29 = CALENDAR_DATE ( 2014, 24, 7 ) ;
#30 = LOCAL_TIME ( 17, 49, 31.00000000000000000, #32 ) ;
#31 = ADVANCED_FACE ( 'NONE', ( #316 ), #308, .T. ) ;
#32 = COORDINATED_UNIVERSAL_TIME_OFFSET ( 7, 0, .BEHIND. ) ;
#33 = APPROVAL_PERSON_ORGANIZATION ( #34, #68, #718 ) ;
#34 = PERSON_AND_ORGANIZATION ( #349, #36 ) ;
#35 = PERSON_AND_ORGANIZATION ( #349, #36 ) ;
#36 = ORGANIZATION ( 'UNSPECIFIED', 'UNSPECIFIED', '' ) ;
#37 = AXIS2_PLACEMENT_3D ( 'NONE', #395, #388, #385 ) ;
#38 = SHAPE_DEFINITION_REPRESENTATION ( #661, #268 ) ;
#39 = ADVANCED_FACE ( 'NONE', ( #126, #307 ), #871, .F. ) ;
#40 = DIMENSIONAL_EXPONENTS ( 1.000000000000000000, 0.0000000000000000000, 0.0000000000000000000, 0.0000000000000000000, 0.0000000000000000000, 0.0000000000000000000, 0.0000000000000000000 ) ;
#41 = CALENDAR_DATE ( 2014, 24, 7 ) ;
#42 = LENGTH_MEASURE_WITH_UNIT ( LENGTH_MEASURE( 0.02539999999999999900 ), #218 );
#43 = CONICAL_SURFACE ( 'NONE', #74, 0.3749999999999999400, 1.308996938995749600 ) ;
#44 = CYLINDRICAL_SURFACE ( 'NONE', #484, 0.1675000000000000700 ) ;
#45 = CONICAL_SURFACE ( 'NONE', #77, 0.1392207792207792400, 0.7853981633974471700 ) ;
#46 = ORIENTED_EDGE ( 'NONE', *, *, #904, .F. ) ;
#47 = FACE_OUTER_BOUND ( 'NONE', #416, .T. ) ;
#48 = TOROIDAL_SURFACE ( 'NONE', #473, 0.3449999999999999200, 0.03000000000000002300 ) ;
#49 = CONICAL_SURFACE ( 'NONE', #79, 0.1900000000000000300, 0.7853981633974513900 ) ;
#50 = AXIS2_PLACEMENT_3D ( 'NONE', #631, #586, #585 ) ;
#51 = AXIS2_PLACEMENT_3D ( 'NONE', #627, #620, #625 ) ;
#52 = AXIS2_PLACEMENT_3D ( 'NONE', #604, #595, #594 ) ;
#53 = AXIS2_PLACEMENT_3D ( 'NONE', #551, #550, #529 ) ;
#54 = ADVANCED_FACE ( 'NONE', ( #233 ), #44, .T. ) ;
#55 = FACE_OUTER_BOUND ( 'NONE', #411, .T. ) ;
#56 = AXIS2_PLACEMENT_3D ( 'NONE', #617, #615, #614 ) ;
#57 = FACE_OUTER_BOUND ( 'NONE', #381, .T. ) ;
#58 = AXIS2_PLACEMENT_3D ( 'NONE', #623, #622, #621 ) ;
#59 = CC_DESIGN_DATE_AND_TIME_ASSIGNMENT ( #20, #715, ( #69 ) ) ;
#60 = PRODUCT_DEFINITION_FORMATION_WITH_SPECIFIED_SOURCE ( 'ANY', '', #611, .NOT_KNOWN. ) ;
#61 = AXIS2_PLACEMENT_3D ( 'NONE', #656, #657, #673 ) ;
#62 = AXIS2_PLACEMENT_3D ( 'NONE', #724, #687, #680 ) ;
#63 = CC_DESIGN_PERSON_AND_ORGANIZATION_ASSIGNMENT ( #25, #716, ( #69 ) ) ;
#64 = ADVANCED_FACE ( 'NONE', ( #231, #298 ), #851, .F. ) ;
#65 = ADVANCED_FACE ( 'NONE', ( #47 ), #48, .T. ) ;
#66 = ADVANCED_FACE ( 'NONE', ( #294 ), #288, .F. ) ;
#67 = CC_DESIGN_APPROVAL ( #68, ( #69 ) ) ;
#68 = APPROVAL ( #719, 'UNSPECIFIED' ) ;
#69 = PRODUCT_DEFINITION ( 'UNKNOWN', '', #60, #783 ) ;
#70 = CC_DESIGN_PERSON_AND_ORGANIZATION_ASSIGNMENT ( #35, #182, ( #611 ) ) ;
#71 = ADVANCED_FACE ( 'NONE', ( #295 ), #291, .T. ) ;
#72 = AXIS2_PLACEMENT_3D ( 'NONE', #106, #118, #186 ) ;
#73 =( GEOMETRIC_REPRESENTATION_CONTEXT ( 3 ) GLOBAL_UNCERTAINTY_ASSIGNED_CONTEXT ( ( #183 ) ) GLOBAL_UNIT_ASSIGNED_CONTEXT ( ( #297, #382, #351 ) ) REPRESENTATION_CONTEXT ( 'NONE', 'WORKASPACE' ) );
#74 = AXIS2_PLACEMENT_3D ( 'NONE', #214, #225, #246 ) ;
#75 = VECTOR ( 'NONE', #277, 39.37007874015748900 ) ;
#76 = FACE_OUTER_BOUND ( 'NONE', #458, .T. ) ;
#77 = AXIS2_PLACEMENT_3D ( 'NONE', #245, #250, #273 ) ;
#78 = ADVANCED_FACE ( 'NONE', ( #309 ), #283, .T. ) ;
#79 = AXIS2_PLACEMENT_3D ( 'NONE', #287, #265, #310 ) ;
#80 = AXIS2_PLACEMENT_3D ( 'NONE', #259, #254, #252 ) ;
#81 = AXIS2_PLACEMENT_3D ( 'NONE', #376, #374, #373 ) ;
#82 = AXIS2_PLACEMENT_3D ( 'NONE', #695, #734, #744 ) ;
#83 = AXIS2_PLACEMENT_3D ( 'NONE', #655, #651, #647 ) ;
#84 = LOCAL_TIME ( 17, 49, 31.00000000000000000, #1 ) ;
#85 = AXIS2_PLACEMENT_3D ( 'NONE', #665, #663, #662 ) ;
#86 = LINE ( 'NONE', #290, #75 ) ;
#87 = VECTOR ( 'NONE', #304, 39.37007874015748900 ) ;
#88 = AXIS2_PLACEMENT_3D ( 'NONE', #692, #691, #689 ) ;
#89 = CIRCLE ( 'NONE', #80, 0.2391732283464567100 ) ;
#90 = VECTOR ( 'NONE', #327, 39.37007874015748100 ) ;
#91 = VECTOR ( 'NONE', #320, 39.37007874015748100 ) ;
#92 = LINE ( 'NONE', #432, #87 ) ;
#93 = DATE_AND_TIME ( #41, #84 ) ;
#94 = VECTOR ( 'NONE', #345, 39.37007874015748100 ) ;
#95 = AXIS2_PLACEMENT_3D ( 'NONE', #732, #727, #725 ) ;
#96 = LINE ( 'NONE', #338, #90 ) ;
#97 = AXIS2_PLACEMENT_3D ( 'NONE', #742, #740, #737 ) ;
#98 = VECTOR ( 'NONE', #362, 39.37007874015748100 ) ;
#99 = LINE ( 'NONE', #359, #94 ) ;
#100 = AXIS2_PLACEMENT_3D ( 'NONE', #753, #754, #755 ) ;
#101 = VECTOR ( 'NONE', #384, 39.37007874015748100 ) ;
#102 = LINE ( 'NONE', #367, #98 ) ;
#103 = AXIS2_PLACEMENT_3D ( 'NONE', #765, #800, #808 ) ;
#104 = AXIS2_PLACEMENT_3D ( 'NONE', #943, #438, #833 ) ;
#105 = LINE ( 'NONE', #379, #101 ) ;
#106 = CARTESIAN_POINT ( 'NONE',  ( 0.0000000000000000000, 0.0000000000000000000, 0.0000000000000000000 ) ) ;
#107 = CIRCLE ( 'NONE', #2, 0.1100000000000000300 ) ;
#108 = CARTESIAN_POINT ( 'NONE',  ( 0.0000000000000000000, 0.09509042658110361500, 0.0000000000000000000 ) ) ;
#109 = APPROVAL_DATE_TIME ( #93, #390 ) ;
#110 = CIRCLE ( 'NONE', #37, 0.1392207792207792700 ) ;
#111 = VECTOR ( 'NONE', #557, 39.37007874015748100 ) ;
#112 = LINE ( 'NONE', #302, #91 ) ;
#113 = CYLINDRICAL_SURFACE ( 'NONE', #709, 0.3749999999999999400 ) ;
#114 = ORIENTED_EDGE ( 'NONE', *, *, #894, .F. ) ;
#115 = AXIS2_PLACEMENT_3D ( 'NONE', #764, #802, #801 ) ;
#116 = CIRCLE ( 'NONE', #81, 0.1900000000000000300 ) ;
#117 = VECTOR ( 'NONE', #483, 39.37007874015748900 ) ;
#118 = DIRECTION ( 'NONE',  ( 0.0000000000000000000, 0.0000000000000000000, 1.000000000000000000 ) ) ;
#119 = FACE_OUTER_BOUND ( 'NONE', #229, .T. ) ;
#120 = LINE ( 'NONE', #485, #117 ) ;
#121 = VECTOR ( 'NONE', #568, 39.37007874015748100 ) ;
#122 = LINE ( 'NONE', #572, #121 ) ;
#123 = FACE_OUTER_BOUND ( 'NONE', #337, .T. ) ;
#124 = CIRCLE ( 'NONE', #319, 0.1900000000000000300 ) ;
#125 = AXIS2_PLACEMENT_3D ( 'NONE', #771, #775, #773 ) ;
#126 = FACE_BOUND ( 'NONE', #409, .T. ) ;
#127 = CIRCLE ( 'NONE', #53, 0.1900000000000000300 ) ;
#128 = VECTOR ( 'NONE', #589, 39.37007874015748100 ) ;
#129 = TOROIDAL_SURFACE ( 'NONE', #50, 0.3449999999999999200, 0.03000000000000002300 ) ;
#130 = VECTOR ( 'NONE', #610, 39.37007874015748100 ) ;
#131 = CYLINDRICAL_SURFACE ( 'NONE', #51, 0.1900000000000000300 ) ;
#132 = CIRCLE ( 'NONE', #52, 0.1675000000000000700 ) ;
#133 = LINE ( 'NONE', #606, #130 ) ;
#134 = LINE ( 'NONE', #593, #128 ) ;
#135 = CIRCLE ( 'NONE', #56, 0.08500000000000004800 ) ;
#136 = FACE_OUTER_BOUND ( 'NONE', #389, .T. ) ;
#137 = AXIS2_PLACEMENT_3D ( 'NONE', #784, #781, #778 ) ;
#138 = CARTESIAN_POINT ( 'NONE',  ( 0.0000000000000000000, 0.4138670011244246500, -0.3749999999999999400 ) ) ;
#139 = AXIS2_PLACEMENT_3D ( 'NONE', #793, #790, #788 ) ;
#140 = CONICAL_SURFACE ( 'NONE', #61, 0.3749999999999999400, 1.308996938995749600 ) ;
#141 = CIRCLE ( 'NONE', #58, 0.5905511811023620400 ) ;
#142 = AXIS2_PLACEMENT_3D ( 'NONE', #815, #799, #796 ) ;
#143 = VECTOR ( 'NONE', #636, 39.37007874015748100 ) ;
#144 = LINE ( 'NONE', #525, #111 ) ;
#145 = LINE ( 'NONE', #306, #147 ) ;
#146 = LINE ( 'NONE', #641, #143 ) ;
#147 = VECTOR ( 'NONE', #645, 39.37007874015748100 ) ;
#148 = VECTOR ( 'NONE', #685, 39.37007874015748100 ) ;
#149 = CYLINDRICAL_SURFACE ( 'NONE', #62, 0.5905511811023620400 ) ;
#150 = AXIS2_PLACEMENT_3D ( 'NONE', #835, #832, #845 ) ;
#151 = CIRCLE ( 'NONE', #85, 0.1899999999999998900 ) ;
#152 = AXIS2_PLACEMENT_3D ( 'NONE', #828, #827, #825 ) ;
#153 = FACE_OUTER_BOUND ( 'NONE', #408, .T. ) ;
#154 = FACE_OUTER_BOUND ( 'NONE', #369, .T. ) ;
#155 = CYLINDRICAL_SURFACE ( 'NONE', #82, 0.06249999999999995100 ) ;
#156 = CIRCLE ( 'NONE', #83, 0.1675000000000000700 ) ;
#157 = VECTOR ( 'NONE', #681, 39.37007874015748100 ) ;
#158 = LINE ( 'NONE', #682, #157 ) ;
#159 = CIRCLE ( 'NONE', #95, 0.03000000000000002300 ) ;
#160 = CIRCLE ( 'NONE', #88, 0.1900000000000000300 ) ;
#161 = ORIENTED_EDGE ( 'NONE', *, *, #612, .T. ) ;
#162 = VECTOR ( 'NONE', #561, 39.37007874015748100 ) ;
#163 = AXIS2_PLACEMENT_3D ( 'NONE', #822, #821, #818 ) ;
#164 = FACE_OUTER_BOUND ( 'NONE', #224, .T. ) ;
#165 = LINE ( 'NONE', #965, #162 ) ;
#166 = CIRCLE ( 'NONE', #104, 0.3449999999999999200 ) ;
#167 = CIRCLE ( 'NONE', #97, 0.03000000000000002300 ) ;
#168 = AXIS2_PLACEMENT_3D ( 'NONE', #849, #848, #847 ) ;
#169 = VECTOR ( 'NONE', #767, 39.37007874015748100 ) ;
#170 = LINE ( 'NONE', #678, #148 ) ;
#171 = LINE ( 'NONE', #810, #178 ) ;
#172 = CONICAL_SURFACE ( 'NONE', #125, 0.1325000000000000300, 0.2260683879938838500 ) ;
#173 = FACE_OUTER_BOUND ( 'NONE', #517, .T. ) ;
#174 = AXIS2_PLACEMENT_3D ( 'NONE', #952, #453, #531 ) ;
#175 = CIRCLE ( 'NONE', #115, 0.3749999999999999400 ) ;
#176 = ORIENTED_EDGE ( 'NONE', *, *, #658, .T. ) ;
#177 = LINE ( 'NONE', #807, #169 ) ;
#178 = VECTOR ( 'NONE', #809, 39.37007874015748100 ) ;
#179 = FACE_OUTER_BOUND ( 'NONE', #648, .T. ) ;
#180 = APPLICATION_PROTOCOL_DEFINITION ( 'international standard', 'config_control_design', 1994, #184 ) ;
#181 = VECTOR ( 'NONE', #777, 39.37007874015748100 ) ;
#182 = PERSON_AND_ORGANIZATION_ROLE ( 'design_owner' ) ;
#183 = UNCERTAINTY_MEASURE_WITH_UNIT (LENGTH_MEASURE( 1.000000000000000100E-005 ), #297, 'distance_accuracy_value', 'NONE');
#184 = APPLICATION_CONTEXT ( 'configuration controlled 3d designs of mechanical parts and assemblies' ) ;
#185 = ORIENTED_EDGE ( 'NONE', *, *, #526, .F. ) ;
#186 = DIRECTION ( 'NONE',  ( 1.000000000000000000, 0.0000000000000000000, 0.0000000000000000000 ) ) ;
#187 = CIRCLE ( 'NONE', #100, 0.06249999999999995100 ) ;
#188 = AXIS2_PLACEMENT_3D ( 'NONE', #323, #333, #206 ) ;
#189 = MECHANICAL_CONTEXT ( 'NONE', #193, 'mechanical' ) ;
#190 = VECTOR ( 'NONE', #776, 39.37007874015748100 ) ;
#191 = CARTESIAN_POINT ( 'NONE',  ( 0.0000000000000000000, 0.1758670011244245500, 0.0000000000000000000 ) ) ;
#192 = LINE ( 'NONE', #774, #181 ) ;
#193 = APPLICATION_CONTEXT ( 'configuration controlled 3d designs of mechanical parts and assemblies' ) ;
#194 = LINE ( 'NONE', #785, #190 ) ;
#195 = CIRCLE ( 'NONE', #137, 0.3749999999999999400 ) ;
#196 = VECTOR ( 'NONE', #823, 39.37007874015748100 ) ;
#197 = FACE_BOUND ( 'NONE', #450, .T. ) ;
#198 = CIRCLE ( 'NONE', #139, 0.5683157524554376400 ) ;
#199 = CYLINDRICAL_SURFACE ( 'NONE', #150, 0.5905511811023620400 ) ;
#200 = APPLICATION_PROTOCOL_DEFINITION ( 'international standard', 'config_control_design', 1994, #193 ) ;
#201 = CIRCLE ( 'NONE', #152, 0.5905511811023621500 ) ;
#202 = CIRCLE ( 'NONE', #142, 0.03000000000000002300 ) ;
#203 = CIRCLE ( 'NONE', #163, 0.06249999999999995100 ) ;
#204 = VECTOR ( 'NONE', #850, 39.37007874015748900 ) ;
#205 = LINE ( 'NONE', #817, #196 ) ;
#206 = DIRECTION ( 'NONE',  ( 0.0000000000000000000, 0.0000000000000000000, -1.000000000000000000 ) ) ;
#207 = VECTOR ( 'NONE', #211, 39.37007874015748100 ) ;
#208 = DIRECTION ( 'NONE',  ( 0.0000000000000000000, 0.0000000000000000000, -1.000000000000000000 ) ) ;
#209 = LINE ( 'NONE', #854, #204 ) ;
#210 = AXIS2_PLACEMENT_3D ( 'NONE', #840, #858, #856 ) ;
#211 = DIRECTION ( 'NONE',  ( -0.0000000000000000000, -1.000000000000000000, -0.0000000000000000000 ) ) ;
#212 = LINE ( 'NONE', #948, #207 ) ;
#213 = MANIFOLD_SOLID_BREP ( 'Chamfer4', #963 ) ;
#214 = CARTESIAN_POINT ( 'NONE',  ( 0.0000000000000000000, 0.1758670011244245500, 0.0000000000000000000 ) ) ;
#215 = CYLINDRICAL_SURFACE ( 'NONE', #174, 0.1900000000000000300 ) ;
#216 = CIRCLE ( 'NONE', #243, 0.5905511811023620400 ) ;
#217 = CYLINDRICAL_SURFACE ( 'NONE', #188, 0.2391732283464567100 ) ;
#218 =( LENGTH_UNIT ( ) NAMED_UNIT ( * ) SI_UNIT ( $, .METRE. ) );
#219 = CIRCLE ( 'NONE', #168, 0.03000000000000002300 ) ;
#220 = FACE_OUTER_BOUND ( 'NONE', #468, .T. ) ;
#221 = FACE_OUTER_BOUND ( 'NONE', #393, .T. ) ;
#222 = CIRCLE ( 'NONE', #322, 0.1900000000000000300 ) ;
#223 = DIRECTION ( 'NONE',  ( 0.0000000000000000000, 0.0000000000000000000, -1.000000000000000000 ) ) ;
#224 = EDGE_LOOP ( 'NONE', ( #646, #628, #632, #634 ) ) ;
#225 = DIRECTION ( 'NONE',  ( -0.0000000000000000000, -1.000000000000000000, -0.0000000000000000000 ) ) ;
#226 = VERTEX_POINT ( 'NONE', #916 ) ;
#227 = CIRCLE ( 'NONE', #210, 0.5905511811023621500 ) ;
#228 = DIRECTION ( 'NONE',  ( -0.0000000000000000000, -1.000000000000000000, -0.0000000000000000000 ) ) ;
#229 = EDGE_LOOP ( 'NONE', ( #600, #375, #580, #588 ) ) ;
#230 = CIRCLE ( 'NONE', #255, 0.5683157524554376400 ) ;
#231 = FACE_BOUND ( 'NONE', #412, .T. ) ;
#232 = FACE_OUTER_BOUND ( 'NONE', #352, .T. ) ;
#233 = FACE_OUTER_BOUND ( 'NONE', #339, .T. ) ;
#234 = CONICAL_SURFACE ( 'NONE', #314, 0.1325000000000000300, 0.2260683879938838500 ) ;
#235 = CIRCLE ( 'NONE', #311, 0.1675000000000000700 ) ;
#236 = CARTESIAN_POINT ( 'NONE',  ( 0.0000000000000000000, 0.4138670011244246500, 0.0000000000000000000 ) ) ;
#237 = CIRCLE ( 'NONE', #303, 0.1899999999999998900 ) ;
#238 = CIRCLE ( 'NONE', #299, 0.3749999999999999400 ) ;
#239 = VERTEX_POINT ( 'NONE', #919 ) ;
#240 = CIRCLE ( 'NONE', #305, 0.1900000000000000300 ) ;
#241 = CIRCLE ( 'NONE', #301, 0.3449999999999999200 ) ;
#242 = FACE_OUTER_BOUND ( 'NONE', #364, .T. ) ;
#243 = AXIS2_PLACEMENT_3D ( 'NONE', #108, #836, #746 ) ;
#244 = CIRCLE ( 'NONE', #317, 0.1675000000000000700 ) ;
#245 = CARTESIAN_POINT ( 'NONE',  ( 0.0000000000000000000, 1.595779220779220700, 0.0000000000000000000 ) ) ;
#246 = DIRECTION ( 'NONE',  ( 0.0000000000000000000, 0.0000000000000000000, -1.000000000000000000 ) ) ;
#247 = CIRCLE ( 'NONE', #292, 0.3749999999999999400 ) ;
#248 = CIRCLE ( 'NONE', #329, 0.1100000000000000300 ) ;
#249 = CIRCLE ( 'NONE', #344, 0.08500000000000004800 ) ;
#250 = DIRECTION ( 'NONE',  ( -0.0000000000000000000, -1.000000000000000000, -0.0000000000000000000 ) ) ;
#251 = CIRCLE ( 'NONE', #354, 0.06249999999999995100 ) ;
#252 = DIRECTION ( 'NONE',  ( 0.0000000000000000000, 0.0000000000000000000, -1.000000000000000000 ) ) ;
#253 = CIRCLE ( 'NONE', #356, 0.06249999999999995100 ) ;
#254 = DIRECTION ( 'NONE',  ( -0.0000000000000000000, -1.000000000000000000, -0.0000000000000000000 ) ) ;
#255 = AXIS2_PLACEMENT_3D ( 'NONE', #510, #509, #270 ) ;
#256 = CIRCLE ( 'NONE', #326, 0.1392207792207792700 ) ;
#257 = CARTESIAN_POINT ( 'NONE',  ( 1.526037147768684100E-017, 1.625000000000000000, 0.1100000000000000300 ) ) ;
#258 = VECTOR ( 'NONE', #879, 39.37007874015748100 ) ;
#259 = CARTESIAN_POINT ( 'NONE',  ( 0.0000000000000000000, 0.1030000000000001100, 0.0000000000000000000 ) ) ;
#260 = CONICAL_SURFACE ( 'NONE', #423, 0.1900000000000000300, 0.7853981633974513900 ) ;
#261 = CIRCLE ( 'NONE', #370, 0.2391732283464567100 ) ;
#262 = LINE ( 'NONE', #831, #258 ) ;
#263 = VECTOR ( 'NONE', #826, 39.37007874015748100 ) ;
#264 = CIRCLE ( 'NONE', #357, 0.2391732283464567100 ) ;
#265 = DIRECTION ( 'NONE',  ( 0.0000000000000000000, 1.000000000000000000, 0.0000000000000000000 ) ) ;
#266 = LINE ( 'NONE', #786, #263 ) ;
#267 = CONICAL_SURFACE ( 'NONE', #443, 0.1675000000000000700, 0.05654343694481728200 ) ;
#268 = ADVANCED_BREP_SHAPE_REPRESENTATION ( 'P105216', ( #213, #72 ), #73 ) ;
#269 = CIRCLE ( 'NONE', #360, 0.2391732283464567100 ) ;
#270 = DIRECTION ( 'NONE',  ( 0.0000000000000000000, 0.0000000000000000000, -1.000000000000000000 ) ) ;
#271 = CONICAL_SURFACE ( 'NONE', #469, 0.1392207792207792400, 0.7853981633974471700 ) ;
#272 = FACE_OUTER_BOUND ( 'NONE', #401, .T. ) ;
#273 = DIRECTION ( 'NONE',  ( 0.0000000000000000000, 0.0000000000000000000, -1.000000000000000000 ) ) ;
#274 = CONICAL_SURFACE ( 'NONE', #451, 0.1675000000000000700, 0.05654343694481728200 ) ;
#275 = TOROIDAL_SURFACE ( 'NONE', #441, 0.5605511811023621300, 0.03000000000000001300 ) ;
#276 = FACE_OUTER_BOUND ( 'NONE', #334, .T. ) ;
#277 = DIRECTION ( 'NONE',  ( 8.659560562354932900E-017, 0.7071067811865474600, -0.7071067811865474600 ) ) ;
#278 = FACE_OUTER_BOUND ( 'NONE', #913, .T. ) ;
#279 = CYLINDRICAL_SURFACE ( 'NONE', #445, 0.3749999999999999400 ) ;
#280 = FACE_OUTER_BOUND ( 'NONE', #437, .T. ) ;
#281 = FACE_OUTER_BOUND ( 'NONE', #406, .T. ) ;
#282 = FACE_BOUND ( 'NONE', #444, .T. ) ;
#283 = CYLINDRICAL_SURFACE ( 'NONE', #457, 0.1675000000000000700 ) ;
#284 = DIRECTION ( 'NONE',  ( -0.0000000000000000000, -1.000000000000000000, -0.0000000000000000000 ) ) ;
#285 = CARTESIAN_POINT ( 'NONE',  ( 0.0000000000000000000, 1.197499999999999800, 0.0000000000000000000 ) ) ;
#286 = FACE_OUTER_BOUND ( 'NONE', #459, .T. ) ;
#287 = CARTESIAN_POINT ( 'NONE',  ( 0.0000000000000000000, 1.197499999999999800, 0.0000000000000000000 ) ) ;
#288 = CONICAL_SURFACE ( 'NONE', #505, 0.08500000000000004800, 0.7853981633974482800 ) ;
#289 = CYLINDRICAL_SURFACE ( 'NONE', #392, 0.06249999999999995100 ) ;
#290 = CARTESIAN_POINT ( 'NONE',  ( 1.040949779275250700E-017, 1.625000000000000000, -0.08500000000000004800 ) ) ;
#291 = TOROIDAL_SURFACE ( 'NONE', #463, 0.5605511811023621300, 0.03000000000000001300 ) ;
#292 = AXIS2_PLACEMENT_3D ( 'NONE', #191, #228, #223 ) ;
#293 = FACE_OUTER_BOUND ( 'NONE', #456, .T. ) ;
#294 = FACE_OUTER_BOUND ( 'NONE', #342, .T. ) ;
#295 = FACE_OUTER_BOUND ( 'NONE', #387, .T. ) ;
#296 = FACE_OUTER_BOUND ( 'NONE', #601, .T. ) ;
#297 =( CONVERSION_BASED_UNIT ( 'INCH', #42 ) LENGTH_UNIT ( ) NAMED_UNIT ( #40 ) );
#298 = FACE_OUTER_BOUND ( 'NONE', #377, .T. ) ;
#299 = AXIS2_PLACEMENT_3D ( 'NONE', #236, #284, #208 ) ;
#300 = ORIENTED_EDGE ( 'NONE', *, *, #544, .F. ) ;
#301 = AXIS2_PLACEMENT_3D ( 'NONE', #353, #347, #940 ) ;
#302 = CARTESIAN_POINT ( 'NONE',  ( 0.0000000000000000000, 0.0000000000000000000, -0.06249999999999995100 ) ) ;
#303 = AXIS2_PLACEMENT_3D ( 'NONE', #966, #964, #830 ) ;
#304 = DIRECTION ( 'NONE',  ( 0.0000000000000000000, 0.7071067811865474600, 0.7071067811865474600 ) ) ;
#305 = AXIS2_PLACEMENT_3D ( 'NONE', #494, #417, #496 ) ;
#306 = CARTESIAN_POINT ( 'NONE',  ( 0.0000000000000000000, 0.8449999999999999700, -0.1675000000000000700 ) ) ;
#307 = FACE_OUTER_BOUND ( 'NONE', #335, .T. ) ;
#308 = CYLINDRICAL_SURFACE ( 'NONE', #495, 0.1899999999999999500 ) ;
#309 = FACE_OUTER_BOUND ( 'NONE', #350, .T. ) ;
#310 = DIRECTION ( 'NONE',  ( 0.0000000000000000000, 0.0000000000000000000, 1.000000000000000000 ) ) ;
#311 = AXIS2_PLACEMENT_3D ( 'NONE', #955, #954, #798 ) ;
#312 = CONICAL_SURFACE ( 'NONE', #508, 0.08500000000000004800, 0.7853981633974482800 ) ;
#313 = CYLINDRICAL_SURFACE ( 'NONE', #506, 0.2391732283464567100 ) ;
#314 = AXIS2_PLACEMENT_3D ( 'NONE', #960, #566, #929 ) ;
#315 = CYLINDRICAL_SURFACE ( 'NONE', #498, 0.1899999999999999500 ) ;
#316 = FACE_OUTER_BOUND ( 'NONE', #330, .T. ) ;
#317 = AXIS2_PLACEMENT_3D ( 'NONE', #957, #956, #951 ) ;
#318 = FACE_OUTER_BOUND ( 'NONE', #440, .T. ) ;
#319 = AXIS2_PLACEMENT_3D ( 'NONE', #285, #555, #552 ) ;
#320 = DIRECTION ( 'NONE',  ( -0.0000000000000000000, -1.000000000000000000, -0.0000000000000000000 ) ) ;
#321 = FACE_OUTER_BOUND ( 'NONE', #464, .T. ) ;
#322 = AXIS2_PLACEMENT_3D ( 'NONE', #923, #922, #921 ) ;
#323 = CARTESIAN_POINT ( 'NONE',  ( 0.0000000000000000000, 0.0000000000000000000, 0.0000000000000000000 ) ) ;
#324 = VERTEX_POINT ( 'NONE', #869 ) ;
#325 = ORIENTED_EDGE ( 'NONE', *, *, #556, .F. ) ;
#326 = AXIS2_PLACEMENT_3D ( 'NONE', #928, #927, #941 ) ;
#327 = DIRECTION ( 'NONE',  ( 0.0000000000000000000, -0.9745551866148995900, -0.2241476929214268600 ) ) ;
#328 = VERTEX_POINT ( 'NONE', #898 ) ;
#329 = AXIS2_PLACEMENT_3D ( 'NONE', #933, #915, #911 ) ;
#330 = EDGE_LOOP ( 'NONE', ( #750, #748, #758, #686 ) ) ;
#331 = ORIENTED_EDGE ( 'NONE', *, *, #556, .T. ) ;
#332 = VERTEX_POINT ( 'NONE', #914 ) ;
#333 = DIRECTION ( 'NONE',  ( -0.0000000000000000000, -1.000000000000000000, -0.0000000000000000000 ) ) ;
#334 = EDGE_LOOP ( 'NONE', ( #532, #533, #534, #535 ) ) ;
#335 = EDGE_LOOP ( 'NONE', ( #554, #597 ) ) ;
#336 = CARTESIAN_POINT ( 'NONE',  ( 4.592425496802573600E-017, 0.4138670011244246500, 0.3749999999999999400 ) ) ;
#337 = EDGE_LOOP ( 'NONE', ( #958, #959, #574, #419 ) ) ;
#338 = CARTESIAN_POINT ( 'NONE',  ( 0.0000000000000000000, 1.625000000000000000, -0.1325000000000000300 ) ) ;
#339 = EDGE_LOOP ( 'NONE', ( #514, #520, #528, #530 ) ) ;
#340 = ADVANCED_FACE ( 'NONE', ( #286, #282 ), #946, .F. ) ;
#341 = DIRECTION ( 'NONE',  ( -0.0000000000000000000, -1.000000000000000000, -0.0000000000000000000 ) ) ;
#342 = EDGE_LOOP ( 'NONE', ( #371, #366, #380, #383 ) ) ;
#343 = VERTEX_POINT ( 'NONE', #891 ) ;
#344 = AXIS2_PLACEMENT_3D ( 'NONE', #925, #924, #937 ) ;
#345 = DIRECTION ( 'NONE',  ( 2.745017546724891800E-017, -0.9745551866148995900, 0.2241476929214268600 ) ) ;
#346 = ORIENTED_EDGE ( 'NONE', *, *, #579, .F. ) ;
#347 = DIRECTION ( 'NONE',  ( -0.0000000000000000000, -1.000000000000000000, -0.0000000000000000000 ) ) ;
#348 = ADVANCED_FACE ( 'NONE', ( #296 ), #279, .T. ) ;
#349 = PERSON ( 'UNSPECIFIED', 'UNSPECIFIED', 'UNSPECIFIED', ('UNSPECIFIED'), ('UNSPECIFIED'), ('UNSPECIFIED') ) ;
#350 = EDGE_LOOP ( 'NONE', ( #683, #331, #763, #688 ) ) ;
#351 =( NAMED_UNIT ( * ) SI_UNIT ( $, .STERADIAN. ) SOLID_ANGLE_UNIT ( ) );
#352 = EDGE_LOOP ( 'NONE', ( #590, #429, #949, #667 ) ) ;
#353 = CARTESIAN_POINT ( 'NONE',  ( 0.0000000000000000000, 0.4438670011244246800, 0.0000000000000000000 ) ) ;
#354 = AXIS2_PLACEMENT_3D ( 'NONE', #938, #945, #944 ) ;
#355 = ORIENTED_EDGE ( 'NONE', *, *, #577, .T. ) ;
#356 = AXIS2_PLACEMENT_3D ( 'NONE', #932, #931, #930 ) ;
#357 = AXIS2_PLACEMENT_3D ( 'NONE', #918, #917, #910 ) ;
#358 = ORIENTED_EDGE ( 'NONE', *, *, #616, .F. ) ;
#359 = CARTESIAN_POINT ( 'NONE',  ( 1.622657008870243100E-017, 1.625000000000000000, 0.1325000000000000300 ) ) ;
#360 = AXIS2_PLACEMENT_3D ( 'NONE', #868, #866, #947 ) ;
#361 = VERTEX_POINT ( 'NONE', #797 ) ;
#362 = DIRECTION ( 'NONE',  ( -0.0000000000000000000, -1.000000000000000000, -0.0000000000000000000 ) ) ;
#363 = ORIENTED_EDGE ( 'NONE', *, *, #577, .F. ) ;
#364 = EDGE_LOOP ( 'NONE', ( #449, #482, #626, #674 ) ) ;
#365 = ORIENTED_EDGE ( 'NONE', *, *, #749, .T. ) ;
#366 = ORIENTED_EDGE ( 'NONE', *, *, #909, .T. ) ;
#367 = CARTESIAN_POINT ( 'NONE',  ( 0.0000000000000000000, 0.0000000000000000000, -0.1900000000000000300 ) ) ;
#368 = ORIENTED_EDGE ( 'NONE', *, *, #539, .F. ) ;
#369 = EDGE_LOOP ( 'NONE', ( #791, #489, #176, #569 ) ) ;
#370 = AXIS2_PLACEMENT_3D ( 'NONE', #886, #885, #880 ) ;
#371 = ORIENTED_EDGE ( 'NONE', *, *, #722, .F. ) ;
#372 = VERTEX_POINT ( 'NONE', #739 ) ;
#373 = DIRECTION ( 'NONE',  ( 0.0000000000000000000, 0.0000000000000000000, -1.000000000000000000 ) ) ;
#374 = DIRECTION ( 'NONE',  ( -0.0000000000000000000, -1.000000000000000000, -0.0000000000000000000 ) ) ;
#375 = ORIENTED_EDGE ( 'NONE', *, *, #567, .T. ) ;
#376 = CARTESIAN_POINT ( 'NONE',  ( 0.0000000000000000000, 1.375000000000000000, 0.0000000000000000000 ) ) ;
#377 = EDGE_LOOP ( 'NONE', ( #721, #720 ) ) ;
#378 = ADVANCED_FACE ( 'NONE', ( #281 ), #274, .T. ) ;
#379 = CARTESIAN_POINT ( 'NONE',  ( 2.326828918379971200E-017, 0.0000000000000000000, 0.1900000000000000300 ) ) ;
#380 = ORIENTED_EDGE ( 'NONE', *, *, #812, .F. ) ;
#381 = EDGE_LOOP ( 'NONE', ( #442, #448, #452, #460 ) ) ;
#382 =( NAMED_UNIT ( * ) PLANE_ANGLE_UNIT ( ) SI_UNIT ( $, .RADIAN. ) );
#383 = ORIENTED_EDGE ( 'NONE', *, *, #907, .F. ) ;
#384 = DIRECTION ( 'NONE',  ( -0.0000000000000000000, -1.000000000000000000, -0.0000000000000000000 ) ) ;
#385 = DIRECTION ( 'NONE',  ( 0.0000000000000000000, 0.0000000000000000000, 1.000000000000000000 ) ) ;
#386 = CC_DESIGN_DATE_AND_TIME_ASSIGNMENT ( #5, #700, ( #501 ) ) ;
#387 = EDGE_LOOP ( 'NONE', ( #519, #573, #161, #363 ) ) ;
#388 = DIRECTION ( 'NONE',  ( -0.0000000000000000000, -1.000000000000000000, -0.0000000000000000000 ) ) ;
#389 = EDGE_LOOP ( 'NONE', ( #536, #540, #541, #549 ) ) ;
#390 = APPROVAL ( #699, 'UNSPECIFIED' ) ;
#391 = CC_DESIGN_APPROVAL ( #394, ( #60 ) ) ;
#392 = AXIS2_PLACEMENT_3D ( 'NONE', #705, #596, #912 ) ;
#393 = EDGE_LOOP ( 'NONE', ( #613, #618, #649, #650 ) ) ;
#394 = APPROVAL ( #713, 'UNSPECIFIED' ) ;
#395 = CARTESIAN_POINT ( 'NONE',  ( 0.0000000000000000000, 1.595779220779220500, 0.0000000000000000000 ) ) ;
#396 = ORIENTED_EDGE ( 'NONE', *, *, #889, .F. ) ;
#397 = ORIENTED_EDGE ( 'NONE', *, *, #884, .T. ) ;
#398 = CARTESIAN_POINT ( 'NONE',  ( 7.654042494670951400E-018, 1.602499999999999800, 0.06249999999999995100 ) ) ;
#399 = CC_DESIGN_PERSON_AND_ORGANIZATION_ASSIGNMENT ( #11, #708, ( #60 ) ) ;
#400 = ORIENTED_EDGE ( 'NONE', *, *, #890, .F. ) ;
#401 = EDGE_LOOP ( 'NONE', ( #426, #427, #433, #435 ) ) ;
#402 = ORIENTED_EDGE ( 'NONE', *, *, #599, .F. ) ;
#403 = VERTEX_POINT ( 'NONE', #714 ) ;
#404 = DIRECTION ( 'NONE',  ( 0.0000000000000000000, 0.0000000000000000000, -1.000000000000000000 ) ) ;
#405 = VERTEX_POINT ( 'NONE', #712 ) ;
#406 = EDGE_LOOP ( 'NONE', ( #493, #499, #503, #653 ) ) ;
#407 = DIRECTION ( 'NONE',  ( 0.0000000000000000000, 1.000000000000000000, 0.0000000000000000000 ) ) ;
#408 = EDGE_LOOP ( 'NONE', ( #358, #355, #527, #346 ) ) ;
#409 = EDGE_LOOP ( 'NONE', ( #185, #587 ) ) ;
#410 = VERTEX_POINT ( 'NONE', #816 ) ;
#411 = EDGE_LOOP ( 'NONE', ( #481, #300, #872, #961 ) ) ;
#412 = EDGE_LOOP ( 'NONE', ( #677, #676 ) ) ;
#413 = ORIENTED_EDGE ( 'NONE', *, *, #616, .T. ) ;
#414 = ADVANCED_FACE ( 'NONE', ( #278 ), #271, .T. ) ;
#415 = ORIENTED_EDGE ( 'NONE', *, *, #749, .F. ) ;
#416 = EDGE_LOOP ( 'NONE', ( #474, #475, #477, #478 ) ) ;
#417 = DIRECTION ( 'NONE',  ( -0.0000000000000000000, -1.000000000000000000, -0.0000000000000000000 ) ) ;
#418 = ORIENTED_EDGE ( 'NONE', *, *, #537, .T. ) ;
#419 = ORIENTED_EDGE ( 'NONE', *, *, #567, .F. ) ;
#420 = ADVANCED_FACE ( 'NONE', ( #293 ), #267, .T. ) ;
#421 = ORIENTED_EDGE ( 'NONE', *, *, #605, .F. ) ;
#422 = ADVANCED_FACE ( 'NONE', ( #280 ), #289, .F. ) ;
#423 = AXIS2_PLACEMENT_3D ( 'NONE', #652, #895, #608 ) ;
#424 = VERTEX_POINT ( 'NONE', #598 ) ;
#425 = ORIENTED_EDGE ( 'NONE', *, *, #726, .F. ) ;
#426 = ORIENTED_EDGE ( 'NONE', *, *, #619, .T. ) ;
#427 = ORIENTED_EDGE ( 'NONE', *, *, #581, .T. ) ;
#428 = CC_DESIGN_APPROVAL ( #390, ( #501 ) ) ;
#429 = ORIENTED_EDGE ( 'NONE', *, *, #547, .T. ) ;
#430 = CC_DESIGN_PERSON_AND_ORGANIZATION_ASSIGNMENT ( #9, #702, ( #501 ) ) ;
#431 = CARTESIAN_POINT ( 'NONE',  ( 0.0000000000000000000, 1.625000000000000000, 0.0000000000000000000 ) ) ;
#432 = CARTESIAN_POINT ( 'NONE',  ( 0.0000000000000000000, 1.625000000000000000, 0.08500000000000004800 ) ) ;
#433 = ORIENTED_EDGE ( 'NONE', *, *, #811, .F. ) ;
#434 = VERTEX_POINT ( 'NONE', #867 ) ;
#435 = ORIENTED_EDGE ( 'NONE', *, *, #612, .F. ) ;
#436 = ORIENTED_EDGE ( 'NONE', *, *, #812, .T. ) ;
#437 = EDGE_LOOP ( 'NONE', ( #733, #670, #582, #418 ) ) ;
#438 = DIRECTION ( 'NONE',  ( -0.0000000000000000000, -1.000000000000000000, -0.0000000000000000000 ) ) ;
#439 = ADVANCED_FACE ( 'NONE', ( #272 ), #275, .T. ) ;
#440 = EDGE_LOOP ( 'NONE', ( #630, #562, #488, #368 ) ) ;
#441 = AXIS2_PLACEMENT_3D ( 'NONE', #654, #829, #668 ) ;
#442 = ORIENTED_EDGE ( 'NONE', *, *, #629, .T. ) ;
#443 = AXIS2_PLACEMENT_3D ( 'NONE', #902, #639, #906 ) ;
#444 = EDGE_LOOP ( 'NONE', ( #365, #511 ) ) ;
#445 = AXIS2_PLACEMENT_3D ( 'NONE', #844, #824, #762 ) ;
#446 = VERTEX_POINT ( 'NONE', #644 ) ;
#447 = VERTEX_POINT ( 'NONE', #609 ) ;
#448 = ORIENTED_EDGE ( 'NONE', *, *, #643, .T. ) ;
#449 = ORIENTED_EDGE ( 'NONE', *, *, #901, .F. ) ;
#450 = EDGE_LOOP ( 'NONE', ( #436, #698 ) ) ;
#451 = AXIS2_PLACEMENT_3D ( 'NONE', #806, #757, #841 ) ;
#452 = ORIENTED_EDGE ( 'NONE', *, *, #619, .F. ) ;
#453 = DIRECTION ( 'NONE',  ( -0.0000000000000000000, -1.000000000000000000, -0.0000000000000000000 ) ) ;
#454 = AXIS2_PLACEMENT_3D ( 'NONE', #819, #820, #846 ) ;
#455 = ORIENTED_EDGE ( 'NONE', *, *, #887, .T. ) ;
#456 = EDGE_LOOP ( 'NONE', ( #730, #874, #789, #834 ) ) ;
#457 = AXIS2_PLACEMENT_3D ( 'NONE', #899, #896, #873 ) ;
#458 = EDGE_LOOP ( 'NONE', ( #507, #325, #455, #513 ) ) ;
#459 = EDGE_LOOP ( 'NONE', ( #865, #805 ) ) ;
#460 = ORIENTED_EDGE ( 'NONE', *, *, #658, .F. ) ;
#461 = ORIENTED_EDGE ( 'NONE', *, *, #693, .T. ) ;
#462 = ORIENTED_EDGE ( 'NONE', *, *, #697, .T. ) ;
#463 = AXIS2_PLACEMENT_3D ( 'NONE', #875, #624, #772 ) ;
#464 = EDGE_LOOP ( 'NONE', ( #669, #666, #664, #660 ) ) ;
#465 = ORIENTED_EDGE ( 'NONE', *, *, #629, .F. ) ;
#466 = VERTEX_POINT ( 'NONE', #671 ) ;
#467 = VERTEX_POINT ( 'NONE', #839 ) ;
#468 = EDGE_LOOP ( 'NONE', ( #546, #413, #421, #425 ) ) ;
#469 = AXIS2_PLACEMENT_3D ( 'NONE', #717, #878, #876 ) ;
#470 = VERTEX_POINT ( 'NONE', #584 ) ;
#471 = ORIENTED_EDGE ( 'NONE', *, *, #701, .F. ) ;
#472 = VERTEX_POINT ( 'NONE', #548 ) ;
#473 = AXIS2_PLACEMENT_3D ( 'NONE', #675, #770, #684 ) ;
#474 = ORIENTED_EDGE ( 'NONE', *, *, #704, .T. ) ;
#475 = ORIENTED_EDGE ( 'NONE', *, *, #723, .T. ) ;
#476 = AXIS2_PLACEMENT_3D ( 'NONE', #659, #853, #852 ) ;
#477 = ORIENTED_EDGE ( 'NONE', *, *, #693, .F. ) ;
#478 = ORIENTED_EDGE ( 'NONE', *, *, #729, .F. ) ;
#479 = ORIENTED_EDGE ( 'NONE', *, *, #736, .T. ) ;
#480 = ORIENTED_EDGE ( 'NONE', *, *, #743, .T. ) ;
#481 = ORIENTED_EDGE ( 'NONE', *, *, #884, .F. ) ;
#482 = ORIENTED_EDGE ( 'NONE', *, *, #545, .T. ) ;
#483 = DIRECTION ( 'NONE',  ( 8.659560562354923000E-017, -0.7071067811865483500, 0.7071067811865466800 ) ) ;
#484 = AXIS2_PLACEMENT_3D ( 'NONE', #877, #751, #870 ) ;
#485 = CARTESIAN_POINT ( 'NONE',  ( 1.704962816475276600E-017, 1.595779220779220700, 0.1392207792207792400 ) ) ;
#486 = ADVANCED_FACE ( 'NONE', ( #276 ), #260, .T. ) ;
#487 = CARTESIAN_POINT ( 'NONE',  ( 0.0000000000000000000, 0.4438670011244246800, -0.3449999999999999200 ) ) ;
#488 = ORIENTED_EDGE ( 'NONE', *, *, #907, .T. ) ;
#489 = ORIENTED_EDGE ( 'NONE', *, *, #570, .T. ) ;
#490 = AXIS2_PLACEMENT_3D ( 'NONE', #950, #892, #883 ) ;
#491 = VERTEX_POINT ( 'NONE', #864 ) ;
#492 = ORIENTED_EDGE ( 'NONE', *, *, #766, .F. ) ;
#493 = ORIENTED_EDGE ( 'NONE', *, *, #769, .T. ) ;
#494 = CARTESIAN_POINT ( 'NONE',  ( 0.0000000000000000000, 0.4474999999999999500, 0.0000000000000000000 ) ) ;
#495 = AXIS2_PLACEMENT_3D ( 'NONE', #602, #935, #759 ) ;
#496 = DIRECTION ( 'NONE',  ( 0.0000000000000000000, 0.0000000000000000000, -1.000000000000000000 ) ) ;
#497 = VERTEX_POINT ( 'NONE', #857 ) ;
#498 = AXIS2_PLACEMENT_3D ( 'NONE', #962, #760, #741 ) ;
#499 = ORIENTED_EDGE ( 'NONE', *, *, #780, .T. ) ;
#500 = EDGE_LOOP ( 'NONE', ( #479, #480, #415, #492 ) ) ;
#501 = SECURITY_CLASSIFICATION ( '', '', #706 ) ;
#502 = VERTEX_POINT ( 'NONE', #257 ) ;
#503 = ORIENTED_EDGE ( 'NONE', *, *, #736, .F. ) ;
#504 = VERTEX_POINT ( 'NONE', #863 ) ;
#505 = AXIS2_PLACEMENT_3D ( 'NONE', #672, #690, #882 ) ;
#506 = AXIS2_PLACEMENT_3D ( 'NONE', #782, #341, #794 ) ;
#507 = ORIENTED_EDGE ( 'NONE', *, *, #855, .F. ) ;
#508 = AXIS2_PLACEMENT_3D ( 'NONE', #804, #860, #761 ) ;
#509 = DIRECTION ( 'NONE',  ( -0.0000000000000000000, -1.000000000000000000, -0.0000000000000000000 ) ) ;
#510 = CARTESIAN_POINT ( 'NONE',  ( 0.0000000000000000000, 0.1240682013697756900, 0.0000000000000000000 ) ) ;
#511 = ORIENTED_EDGE ( 'NONE', *, *, #564, .T. ) ;
#512 = EDGE_CURVE ( 'NONE', #410, #637, #266, .T. ) ;
#513 = ORIENTED_EDGE ( 'NONE', *, *, #553, .T. ) ;
#514 = ORIENTED_EDGE ( 'NONE', *, *, #837, .T. ) ;
#515 = CARTESIAN_POINT ( 'NONE',  ( 4.408728476930471000E-017, 0.4438670011244246800, 0.3449999999999999200 ) ) ;
#516 = EDGE_CURVE ( 'NONE', #637, #728, #261, .T. ) ;
#517 = EDGE_LOOP ( 'NONE', ( #711, #756 ) ) ;
#518 = VERTEX_POINT ( 'NONE', #861 ) ;
#519 = ORIENTED_EDGE ( 'NONE', *, *, #581, .F. ) ;
#520 = ORIENTED_EDGE ( 'NONE', *, *, #838, .T. ) ;
#521 = EDGE_CURVE ( 'NONE', #542, #728, #262, .T. ) ;
#522 = EDGE_CURVE ( 'NONE', #542, #410, #269, .T. ) ;
#523 = VERTEX_POINT ( 'NONE', #953 ) ;
#524 = FACE_OUTER_BOUND ( 'NONE', #500, .T. ) ;
#525 = CARTESIAN_POINT ( 'NONE',  ( 0.0000000000000000000, 1.197499999999999800, 0.1900000000000000300 ) ) ;
#526 = EDGE_CURVE ( 'NONE', #728, #637, #264, .T. ) ;
#527 = ORIENTED_EDGE ( 'NONE', *, *, #726, .T. ) ;
#528 = ORIENTED_EDGE ( 'NONE', *, *, #769, .F. ) ;
#529 = DIRECTION ( 'NONE',  ( 0.0000000000000000000, 0.0000000000000000000, -1.000000000000000000 ) ) ;
#530 = ORIENTED_EDGE ( 'NONE', *, *, #842, .F. ) ;
#531 = DIRECTION ( 'NONE',  ( 0.0000000000000000000, 0.0000000000000000000, -1.000000000000000000 ) ) ;
#532 = ORIENTED_EDGE ( 'NONE', *, *, #837, .F. ) ;
#533 = ORIENTED_EDGE ( 'NONE', *, *, #855, .T. ) ;
#534 = ORIENTED_EDGE ( 'NONE', *, *, #862, .T. ) ;
#535 = ORIENTED_EDGE ( 'NONE', *, *, #887, .F. ) ;
#536 = ORIENTED_EDGE ( 'NONE', *, *, #894, .T. ) ;
#537 = EDGE_CURVE ( 'NONE', #491, #633, #253, .T. ) ;
#538 = EDGE_CURVE ( 'NONE', #903, #424, #251, .T. ) ;
#539 = EDGE_CURVE ( 'NONE', #361, #434, #249, .T. ) ;
#540 = ORIENTED_EDGE ( 'NONE', *, *, #897, .T. ) ;
#541 = ORIENTED_EDGE ( 'NONE', *, *, #862, .F. ) ;
#542 = VERTEX_POINT ( 'NONE', #939 ) ;
#543 = VERTEX_POINT ( 'NONE', #926 ) ;
#544 = EDGE_CURVE ( 'NONE', #403, #502, #248, .T. ) ;
#545 = EDGE_CURVE ( 'NONE', #472, #518, #256, .T. ) ;
#546 = ORIENTED_EDGE ( 'NONE', *, *, #811, .T. ) ;
#547 = EDGE_CURVE ( 'NONE', #543, #372, #222, .T. ) ;
#548 = CARTESIAN_POINT ( 'NONE',  ( 2.015895867427624000E-017, 1.595779220779220500, 0.1392207792207792700 ) ) ;
#549 = ORIENTED_EDGE ( 'NONE', *, *, #900, .F. ) ;
#550 = DIRECTION ( 'NONE',  ( -0.0000000000000000000, -1.000000000000000000, -0.0000000000000000000 ) ) ;
#551 = CARTESIAN_POINT ( 'NONE',  ( 0.0000000000000000000, 1.197499999999999800, 0.0000000000000000000 ) ) ;
#552 = DIRECTION ( 'NONE',  ( 0.0000000000000000000, 0.0000000000000000000, -1.000000000000000000 ) ) ;
#553 = EDGE_CURVE ( 'NONE', #343, #470, #124, .T. ) ;
#554 = ORIENTED_EDGE ( 'NONE', *, *, #605, .T. ) ;
#555 = DIRECTION ( 'NONE',  ( -0.0000000000000000000, -1.000000000000000000, -0.0000000000000000000 ) ) ;
#556 = EDGE_CURVE ( 'NONE', #497, #467, #244, .T. ) ;
#557 = DIRECTION ( 'NONE',  ( 0.0000000000000000000, 0.7071067811865453500, 0.7071067811865496800 ) ) ;
#558 = DIRECTION ( 'NONE',  ( 0.0000000000000000000, 0.0000000000000000000, -1.000000000000000000 ) ) ;
#559 = ADVANCED_FACE ( 'NONE', ( #242 ), #234, .T. ) ;
#560 = EDGE_CURVE ( 'NONE', #447, #324, #235, .T. ) ;
#561 = DIRECTION ( 'NONE',  ( -0.0000000000000000000, -1.000000000000000000, -0.0000000000000000000 ) ) ;
#562 = ORIENTED_EDGE ( 'NONE', *, *, #538, .F. ) ;
#563 = EDGE_CURVE ( 'NONE', #803, #446, #240, .T. ) ;
#564 = EDGE_CURVE ( 'NONE', #328, #466, #237, .T. ) ;
#565 = EDGE_CURVE ( 'NONE', #893, #888, #241, .T. ) ;
#566 = DIRECTION ( 'NONE',  ( -0.0000000000000000000, -1.000000000000000000, -0.0000000000000000000 ) ) ;
#567 = EDGE_CURVE ( 'NONE', #905, #578, #238, .T. ) ;
#568 = DIRECTION ( 'NONE',  ( 8.659560562354960000E-017, 0.7071067811865453500, -0.7071067811865496800 ) ) ;
#569 = ORIENTED_EDGE ( 'NONE', *, *, #571, .F. ) ;
#570 = EDGE_CURVE ( 'NONE', #731, #703, #247, .T. ) ;
#571 = EDGE_CURVE ( 'NONE', #226, #523, #230, .T. ) ;
#572 = CARTESIAN_POINT ( 'NONE',  ( 2.326828918379971200E-017, 1.197499999999999800, -0.1900000000000000300 ) ) ;
#573 = ORIENTED_EDGE ( 'NONE', *, *, #571, .T. ) ;
#574 = ORIENTED_EDGE ( 'NONE', *, *, #729, .T. ) ;
#575 = ADVANCED_FACE ( 'NONE', ( #221 ), #217, .F. ) ;
#576 = ADVANCED_FACE ( 'NONE', ( #232 ), #215, .T. ) ;
#577 = EDGE_CURVE ( 'NONE', #405, #332, #216, .T. ) ;
#578 = VERTEX_POINT ( 'NONE', #138 ) ;
#579 = EDGE_CURVE ( 'NONE', #239, #504, #227, .T. ) ;
#580 = ORIENTED_EDGE ( 'NONE', *, *, #701, .T. ) ;
#581 = EDGE_CURVE ( 'NONE', #226, #405, #219, .T. ) ;
#582 = ORIENTED_EDGE ( 'NONE', *, *, #908, .T. ) ;
#583 = DIRECTION ( 'NONE',  ( -0.0000000000000000000, -1.000000000000000000, -0.0000000000000000000 ) ) ;
#584 = CARTESIAN_POINT ( 'NONE',  ( 0.0000000000000000000, 1.197499999999999800, -0.1900000000000000300 ) ) ;
#585 = DIRECTION ( 'NONE',  ( 0.0000000000000000000, 0.0000000000000000000, -1.000000000000000000 ) ) ;
#586 = DIRECTION ( 'NONE',  ( -0.0000000000000000000, -1.000000000000000000, -0.0000000000000000000 ) ) ;
#587 = ORIENTED_EDGE ( 'NONE', *, *, #516, .F. ) ;
#588 = ORIENTED_EDGE ( 'NONE', *, *, #570, .F. ) ;
#589 = DIRECTION ( 'NONE',  ( -0.0000000000000000000, -1.000000000000000000, -0.0000000000000000000 ) ) ;
#590 = ORIENTED_EDGE ( 'NONE', *, *, #897, .F. ) ;
#591 = CARTESIAN_POINT ( 'NONE',  ( 0.0000000000000000000, 0.0000000000000000000, 0.0000000000000000000 ) ) ;
#592 = EDGE_CURVE ( 'NONE', #903, #633, #212, .T. ) ;
#593 = CARTESIAN_POINT ( 'NONE',  ( 0.0000000000000000000, 0.0000000000000000000, -0.1675000000000000700 ) ) ;
#594 = DIRECTION ( 'NONE',  ( 0.0000000000000000000, 0.0000000000000000000, -1.000000000000000000 ) ) ;
#595 = DIRECTION ( 'NONE',  ( -0.0000000000000000000, -1.000000000000000000, -0.0000000000000000000 ) ) ;
#596 = DIRECTION ( 'NONE',  ( -0.0000000000000000000, -1.000000000000000000, -0.0000000000000000000 ) ) ;
#597 = ORIENTED_EDGE ( 'NONE', *, *, #579, .T. ) ;
#598 = CARTESIAN_POINT ( 'NONE',  ( 0.0000000000000000000, 1.602499999999999800, -0.06249999999999995100 ) ) ;
#599 = EDGE_CURVE ( 'NONE', #403, #518, #209, .T. ) ;
#600 = ORIENTED_EDGE ( 'NONE', *, *, #697, .F. ) ;
#601 = EDGE_LOOP ( 'NONE', ( #461, #462, #465, #471 ) ) ;
#602 = CARTESIAN_POINT ( 'NONE',  ( 0.0000000000000000000, 0.0000000000000000000, 0.0000000000000000000 ) ) ;
#603 = ADVANCED_FACE ( 'NONE', ( #220 ), #199, .T. ) ;
#604 = CARTESIAN_POINT ( 'NONE',  ( 0.0000000000000000000, 1.175000000000000000, 0.0000000000000000000 ) ) ;
#605 = EDGE_CURVE ( 'NONE', #504, #239, #201, .T. ) ;
#606 = CARTESIAN_POINT ( 'NONE',  ( 2.051283388571817000E-017, 0.0000000000000000000, 0.1675000000000000700 ) ) ;
#607 = EDGE_CURVE ( 'NONE', #633, #491, #203, .T. ) ;
#608 = DIRECTION ( 'NONE',  ( 0.0000000000000000000, 0.0000000000000000000, 1.000000000000000000 ) ) ;
#609 = CARTESIAN_POINT ( 'NONE',  ( 2.051283388571817000E-017, 0.8449999999999999700, 0.1675000000000000700 ) ) ;
#610 = DIRECTION ( 'NONE',  ( -0.0000000000000000000, -1.000000000000000000, -0.0000000000000000000 ) ) ;
#611 = PRODUCT ( 'P105216', 'P105216', '', ( #189 ) ) ;
#612 = EDGE_CURVE ( 'NONE', #523, #332, #202, .T. ) ;
#613 = ORIENTED_EDGE ( 'NONE', *, *, #920, .F. ) ;
#614 = DIRECTION ( 'NONE',  ( 0.0000000000000000000, 0.0000000000000000000, -1.000000000000000000 ) ) ;
#615 = DIRECTION ( 'NONE',  ( -0.0000000000000000000, -1.000000000000000000, -0.0000000000000000000 ) ) ;
#616 = EDGE_CURVE ( 'NONE', #405, #239, #205, .T. ) ;
#617 = CARTESIAN_POINT ( 'NONE',  ( 0.0000000000000000000, 1.625000000000000000, 0.0000000000000000000 ) ) ;
#618 = ORIENTED_EDGE ( 'NONE', *, *, #512, .T. ) ;
#619 = EDGE_CURVE ( 'NONE', #523, #226, #198, .T. ) ;
#620 = DIRECTION ( 'NONE',  ( -0.0000000000000000000, -1.000000000000000000, -0.0000000000000000000 ) ) ;
#621 = DIRECTION ( 'NONE',  ( 0.0000000000000000000, 0.0000000000000000000, -1.000000000000000000 ) ) ;
#622 = DIRECTION ( 'NONE',  ( -0.0000000000000000000, -1.000000000000000000, -0.0000000000000000000 ) ) ;
#623 = CARTESIAN_POINT ( 'NONE',  ( 0.0000000000000000000, 0.09509042658110361500, 0.0000000000000000000 ) ) ;
#624 = DIRECTION ( 'NONE',  ( -0.0000000000000000000, -1.000000000000000000, -0.0000000000000000000 ) ) ;
#625 = DIRECTION ( 'NONE',  ( 0.0000000000000000000, 0.0000000000000000000, -1.000000000000000000 ) ) ;
#626 = ORIENTED_EDGE ( 'NONE', *, *, #904, .T. ) ;
#627 = CARTESIAN_POINT ( 'NONE',  ( 0.0000000000000000000, 0.0000000000000000000, 0.0000000000000000000 ) ) ;
#628 = ORIENTED_EDGE ( 'NONE', *, *, #592, .T. ) ;
#629 = EDGE_CURVE ( 'NONE', #703, #731, #195, .T. ) ;
#630 = ORIENTED_EDGE ( 'NONE', *, *, #909, .F. ) ;
#631 = CARTESIAN_POINT ( 'NONE',  ( 0.0000000000000000000, 0.4138670011244246500, 0.0000000000000000000 ) ) ;
#632 = ORIENTED_EDGE ( 'NONE', *, *, #607, .T. ) ;
#633 = VERTEX_POINT ( 'NONE', #795 ) ;
#634 = ORIENTED_EDGE ( 'NONE', *, *, #908, .F. ) ;
#635 = CARTESIAN_POINT ( 'NONE',  ( 2.326828918379971200E-017, 0.4474999999999999500, 0.1900000000000000300 ) ) ;
#636 = DIRECTION ( 'NONE',  ( 6.920884667776091100E-018, -0.9984018457335853700, 0.05651331202265567200 ) ) ;
#637 = VERTEX_POINT ( 'NONE', #787 ) ;
#638 = CC_DESIGN_PERSON_AND_ORGANIZATION_ASSIGNMENT ( #10, #707, ( #60 ) ) ;
#639 = DIRECTION ( 'NONE',  ( -0.0000000000000000000, -1.000000000000000000, -0.0000000000000000000 ) ) ;
#640 = ORIENTED_EDGE ( 'NONE', *, *, #890, .T. ) ;
#641 = CARTESIAN_POINT ( 'NONE',  ( 2.051283388571817000E-017, 0.8449999999999999700, 0.1675000000000000700 ) ) ;
#642 = ORIENTED_EDGE ( 'NONE', *, *, #901, .T. ) ;
#643 = EDGE_CURVE ( 'NONE', #731, #226, #194, .T. ) ;
#644 = CARTESIAN_POINT ( 'NONE',  ( 0.0000000000000000000, 0.4474999999999999500, -0.1900000000000000300 ) ) ;
#645 = DIRECTION ( 'NONE',  ( 0.0000000000000000000, -0.9984018457335853700, -0.05651331202265567200 ) ) ;
#646 = ORIENTED_EDGE ( 'NONE', *, *, #722, .T. ) ;
#647 = DIRECTION ( 'NONE',  ( 0.0000000000000000000, 0.0000000000000000000, -1.000000000000000000 ) ) ;
#648 = EDGE_LOOP ( 'NONE', ( #640, #642, #114, #46 ) ) ;
#649 = ORIENTED_EDGE ( 'NONE', *, *, #516, .T. ) ;
#650 = ORIENTED_EDGE ( 'NONE', *, *, #521, .F. ) ;
#651 = DIRECTION ( 'NONE',  ( -0.0000000000000000000, -1.000000000000000000, -0.0000000000000000000 ) ) ;
#652 = CARTESIAN_POINT ( 'NONE',  ( 0.0000000000000000000, 1.197499999999999800, 0.0000000000000000000 ) ) ;
#653 = ORIENTED_EDGE ( 'NONE', *, *, #792, .F. ) ;
#654 = CARTESIAN_POINT ( 'NONE',  ( 0.0000000000000000000, 0.09509042658110361500, 0.0000000000000000000 ) ) ;
#655 = CARTESIAN_POINT ( 'NONE',  ( 0.0000000000000000000, 0.8449999999999999700, 0.0000000000000000000 ) ) ;
#656 = CARTESIAN_POINT ( 'NONE',  ( 0.0000000000000000000, 0.1758670011244245500, 0.0000000000000000000 ) ) ;
#657 = DIRECTION ( 'NONE',  ( -0.0000000000000000000, -1.000000000000000000, -0.0000000000000000000 ) ) ;
#658 = EDGE_CURVE ( 'NONE', #703, #523, #192, .T. ) ;
#659 = CARTESIAN_POINT ( 'NONE',  ( -0.2391732283464567100, 0.1030000000000001100, 0.0000000000000000000 ) ) ;
#660 = ORIENTED_EDGE ( 'NONE', *, *, #526, .T. ) ;
#661 = PRODUCT_DEFINITION_SHAPE ( 'NONE', 'NONE',  #69 ) ;
#662 = DIRECTION ( 'NONE',  ( 0.0000000000000000000, 0.0000000000000000000, -1.000000000000000000 ) ) ;
#663 = DIRECTION ( 'NONE',  ( -0.0000000000000000000, -1.000000000000000000, -0.0000000000000000000 ) ) ;
#664 = ORIENTED_EDGE ( 'NONE', *, *, #521, .T. ) ;
#665 = CARTESIAN_POINT ( 'NONE',  ( 0.0000000000000000000, 0.4438670011244246800, 0.0000000000000000000 ) ) ;
#666 = ORIENTED_EDGE ( 'NONE', *, *, #522, .F. ) ;
#667 = ORIENTED_EDGE ( 'NONE', *, *, #553, .F. ) ;
#668 = DIRECTION ( 'NONE',  ( 0.0000000000000000000, 0.0000000000000000000, -1.000000000000000000 ) ) ;
#669 = ORIENTED_EDGE ( 'NONE', *, *, #512, .F. ) ;
#670 = ORIENTED_EDGE ( 'NONE', *, *, #538, .T. ) ;
#671 = CARTESIAN_POINT ( 'NONE',  ( 0.0000000000000000000, 0.4438670011244246800, -0.1899999999999998900 ) ) ;
#672 = CARTESIAN_POINT ( 'NONE',  ( 0.0000000000000000000, 1.625000000000000000, 0.0000000000000000000 ) ) ;
#673 = DIRECTION ( 'NONE',  ( 0.0000000000000000000, 0.0000000000000000000, -1.000000000000000000 ) ) ;
#674 = ORIENTED_EDGE ( 'NONE', *, *, #547, .F. ) ;
#675 = CARTESIAN_POINT ( 'NONE',  ( 0.0000000000000000000, 0.4138670011244246500, 0.0000000000000000000 ) ) ;
#676 = ORIENTED_EDGE ( 'NONE', *, *, #607, .F. ) ;
#677 = ORIENTED_EDGE ( 'NONE', *, *, #537, .F. ) ;
#678 = CARTESIAN_POINT ( 'NONE',  ( 0.0000000000000000000, 0.0000000000000000000, -0.1899999999999999500 ) ) ;
#679 = ADVANCED_FACE ( 'NONE', ( #179 ), #172, .T. ) ;
#680 = DIRECTION ( 'NONE',  ( 0.0000000000000000000, 0.0000000000000000000, -1.000000000000000000 ) ) ;
#681 = DIRECTION ( 'NONE',  ( -0.0000000000000000000, -1.000000000000000000, -0.0000000000000000000 ) ) ;
#682 = CARTESIAN_POINT ( 'NONE',  ( 2.326828918379970600E-017, 0.0000000000000000000, 0.1899999999999999500 ) ) ;
#683 = ORIENTED_EDGE ( 'NONE', *, *, #838, .F. ) ;
#684 = DIRECTION ( 'NONE',  ( 0.0000000000000000000, 0.0000000000000000000, -1.000000000000000000 ) ) ;
#685 = DIRECTION ( 'NONE',  ( -0.0000000000000000000, -1.000000000000000000, -0.0000000000000000000 ) ) ;
#686 = ORIENTED_EDGE ( 'NONE', *, *, #564, .F. ) ;
#687 = DIRECTION ( 'NONE',  ( -0.0000000000000000000, -1.000000000000000000, -0.0000000000000000000 ) ) ;
#688 = ORIENTED_EDGE ( 'NONE', *, *, #560, .F. ) ;
#689 = DIRECTION ( 'NONE',  ( 0.0000000000000000000, 0.0000000000000000000, -1.000000000000000000 ) ) ;
#690 = DIRECTION ( 'NONE',  ( -0.0000000000000000000, 1.000000000000000000, -0.0000000000000000000 ) ) ;
#691 = DIRECTION ( 'NONE',  ( -0.0000000000000000000, -1.000000000000000000, -0.0000000000000000000 ) ) ;
#692 = CARTESIAN_POINT ( 'NONE',  ( 0.0000000000000000000, 0.4474999999999999500, 0.0000000000000000000 ) ) ;
#693 = EDGE_CURVE ( 'NONE', #578, #905, #175, .T. ) ;
#694 = ADVANCED_FACE ( 'NONE', ( #197, #173 ), #768, .F. ) ;
#695 = CARTESIAN_POINT ( 'NONE',  ( 0.0000000000000000000, 0.0000000000000000000, 0.0000000000000000000 ) ) ;
#696 = APPROVAL_ROLE ( '' ) ;
#697 = EDGE_CURVE ( 'NONE', #905, #731, #171, .T. ) ;
#698 = ORIENTED_EDGE ( 'NONE', *, *, #539, .T. ) ;
#699 = APPROVAL_STATUS ( 'not_yet_approved' ) ;
#700 = DATE_TIME_ROLE ( 'classification_date' ) ;
#701 = EDGE_CURVE ( 'NONE', #578, #703, #177, .T. ) ;
#702 = PERSON_AND_ORGANIZATION_ROLE ( 'classification_officer' ) ;
#703 = VERTEX_POINT ( 'NONE', #814 ) ;
#704 = EDGE_CURVE ( 'NONE', #888, #893, #166, .T. ) ;
#705 = CARTESIAN_POINT ( 'NONE',  ( 0.0000000000000000000, 0.0000000000000000000, 0.0000000000000000000 ) ) ;
#706 = SECURITY_CLASSIFICATION_LEVEL ( 'unclassified' ) ;
#707 = PERSON_AND_ORGANIZATION_ROLE ( 'design_supplier' ) ;
#708 = PERSON_AND_ORGANIZATION_ROLE ( 'creator' ) ;
#709 = AXIS2_PLACEMENT_3D ( 'NONE', #591, #583, #558 ) ;
#710 = APPROVAL_ROLE ( '' ) ;
#711 = ORIENTED_EDGE ( 'NONE', *, *, #544, .T. ) ;
#712 = CARTESIAN_POINT ( 'NONE',  ( 7.232166136696967600E-017, 0.09509042658110361500, 0.5905511811023620400 ) ) ;
#713 = APPROVAL_STATUS ( 'not_yet_approved' ) ;
#714 = CARTESIAN_POINT ( 'NONE',  ( 0.0000000000000000000, 1.625000000000000000, -0.1100000000000000300 ) ) ;
#715 = DATE_TIME_ROLE ( 'creation_date' ) ;
#716 = PERSON_AND_ORGANIZATION_ROLE ( 'creator' ) ;
#717 = CARTESIAN_POINT ( 'NONE',  ( 0.0000000000000000000, 1.595779220779220700, 0.0000000000000000000 ) ) ;
#718 = APPROVAL_ROLE ( '' ) ;
#719 = APPROVAL_STATUS ( 'not_yet_approved' ) ;
#720 = ORIENTED_EDGE ( 'NONE', *, *, #920, .T. ) ;
#721 = ORIENTED_EDGE ( 'NONE', *, *, #522, .T. ) ;
#722 = EDGE_CURVE ( 'NONE', #424, #903, #187, .T. ) ;
#723 = EDGE_CURVE ( 'NONE', #893, #905, #167, .T. ) ;
#724 = CARTESIAN_POINT ( 'NONE',  ( 0.0000000000000000000, 0.0000000000000000000, 0.0000000000000000000 ) ) ;
#725 = DIRECTION ( 'NONE',  ( 0.0000000000000000000, 0.0000000000000000000, 1.000000000000000000 ) ) ;
#726 = EDGE_CURVE ( 'NONE', #332, #504, #165, .T. ) ;
#727 = DIRECTION ( 'NONE',  ( -1.000000000000000000, 0.0000000000000000000, 0.0000000000000000000 ) ) ;
#728 = VERTEX_POINT ( 'NONE', #745 ) ;
#729 = EDGE_CURVE ( 'NONE', #888, #578, #159, .T. ) ;
#730 = ORIENTED_EDGE ( 'NONE', *, *, #780, .F. ) ;
#731 = VERTEX_POINT ( 'NONE', #735 ) ;
#732 = CARTESIAN_POINT ( 'NONE',  ( 0.0000000000000000000, 0.4138670011244246500, -0.3449999999999999200 ) ) ;
#733 = ORIENTED_EDGE ( 'NONE', *, *, #592, .F. ) ;
#734 = DIRECTION ( 'NONE',  ( -0.0000000000000000000, -1.000000000000000000, -0.0000000000000000000 ) ) ;
#735 = CARTESIAN_POINT ( 'NONE',  ( 4.592425496802573600E-017, 0.1758670011244245500, 0.3749999999999999400 ) ) ;
#736 = EDGE_CURVE ( 'NONE', #446, #803, #160, .T. ) ;
#737 = DIRECTION ( 'NONE',  ( -1.224646799147352200E-016, 0.0000000000000000000, -1.000000000000000000 ) ) ;
#738 = ADVANCED_FACE ( 'NONE', ( #164 ), #155, .F. ) ;
#739 = CARTESIAN_POINT ( 'NONE',  ( 0.0000000000000000000, 1.375000000000000000, -0.1900000000000000300 ) ) ;
#740 = DIRECTION ( 'NONE',  ( 1.000000000000000000, 0.0000000000000000000, -1.224646799147353200E-016 ) ) ;
#741 = DIRECTION ( 'NONE',  ( 0.0000000000000000000, 0.0000000000000000000, -1.000000000000000000 ) ) ;
#742 = CARTESIAN_POINT ( 'NONE',  ( 4.225031457058367800E-017, 0.4138670011244246500, 0.3449999999999999200 ) ) ;
#743 = EDGE_CURVE ( 'NONE', #803, #328, #158, .T. ) ;
#744 = DIRECTION ( 'NONE',  ( 0.0000000000000000000, 0.0000000000000000000, -1.000000000000000000 ) ) ;
#745 = CARTESIAN_POINT ( 'NONE',  ( 0.0000000000000000000, 1.031552784741635300E-016, -0.2391732283464567100 ) ) ;
#746 = DIRECTION ( 'NONE',  ( 0.0000000000000000000, 0.0000000000000000000, -1.000000000000000000 ) ) ;
#747 = ADVANCED_FACE ( 'NONE', ( #153 ), #149, .T. ) ;
#748 = ORIENTED_EDGE ( 'NONE', *, *, #563, .T. ) ;
#749 = EDGE_CURVE ( 'NONE', #466, #328, #151, .T. ) ;
#750 = ORIENTED_EDGE ( 'NONE', *, *, #743, .F. ) ;
#751 = DIRECTION ( 'NONE',  ( -0.0000000000000000000, -1.000000000000000000, -0.0000000000000000000 ) ) ;
#752 = PRODUCT_RELATED_PRODUCT_CATEGORY ( 'detail', '', ( #611 ) ) ;
#753 = CARTESIAN_POINT ( 'NONE',  ( 0.0000000000000000000, 1.602499999999999800, 0.0000000000000000000 ) ) ;
#754 = DIRECTION ( 'NONE',  ( -0.0000000000000000000, 1.000000000000000000, -0.0000000000000000000 ) ) ;
#755 = DIRECTION ( 'NONE',  ( 0.0000000000000000000, 0.0000000000000000000, -1.000000000000000000 ) ) ;
#756 = ORIENTED_EDGE ( 'NONE', *, *, #889, .T. ) ;
#757 = DIRECTION ( 'NONE',  ( -0.0000000000000000000, -1.000000000000000000, -0.0000000000000000000 ) ) ;
#758 = ORIENTED_EDGE ( 'NONE', *, *, #766, .T. ) ;
#759 = DIRECTION ( 'NONE',  ( 0.0000000000000000000, 0.0000000000000000000, -1.000000000000000000 ) ) ;
#760 = DIRECTION ( 'NONE',  ( -0.0000000000000000000, -1.000000000000000000, -0.0000000000000000000 ) ) ;
#761 = DIRECTION ( 'NONE',  ( 0.0000000000000000000, 0.0000000000000000000, 1.000000000000000000 ) ) ;
#762 = DIRECTION ( 'NONE',  ( 0.0000000000000000000, 0.0000000000000000000, -1.000000000000000000 ) ) ;
#763 = ORIENTED_EDGE ( 'NONE', *, *, #842, .T. ) ;
#764 = CARTESIAN_POINT ( 'NONE',  ( 0.0000000000000000000, 0.4138670011244246500, 0.0000000000000000000 ) ) ;
#765 = CARTESIAN_POINT ( 'NONE',  ( -0.06249999999999995100, 1.625000000000000000, 0.0000000000000000000 ) ) ;
#766 = EDGE_CURVE ( 'NONE', #446, #466, #170, .T. ) ;
#767 = DIRECTION ( 'NONE',  ( -0.0000000000000000000, -1.000000000000000000, -0.0000000000000000000 ) ) ;
#768 = PLANE ( 'NONE',  #103 ) ;
#769 = EDGE_CURVE ( 'NONE', #324, #447, #156, .T. ) ;
#770 = DIRECTION ( 'NONE',  ( -0.0000000000000000000, -1.000000000000000000, -0.0000000000000000000 ) ) ;
#771 = CARTESIAN_POINT ( 'NONE',  ( 0.0000000000000000000, 1.625000000000000000, 0.0000000000000000000 ) ) ;
#772 = DIRECTION ( 'NONE',  ( 0.0000000000000000000, 0.0000000000000000000, -1.000000000000000000 ) ) ;
#773 = DIRECTION ( 'NONE',  ( 0.0000000000000000000, 0.0000000000000000000, -1.000000000000000000 ) ) ;
#774 = CARTESIAN_POINT ( 'NONE',  ( 0.0000000000000000000, 0.1758670011244245500, -0.3749999999999999400 ) ) ;
#775 = DIRECTION ( 'NONE',  ( -0.0000000000000000000, -1.000000000000000000, -0.0000000000000000000 ) ) ;
#776 = DIRECTION ( 'NONE',  ( 1.182917971378670600E-016, -0.2588190451025184100, 0.9659258262890689800 ) ) ;
#777 = DIRECTION ( 'NONE',  ( 0.0000000000000000000, -0.2588190451025184100, -0.9659258262890689800 ) ) ;
#778 = DIRECTION ( 'NONE',  ( 0.0000000000000000000, 0.0000000000000000000, -1.000000000000000000 ) ) ;
#779 = ADVANCED_FACE ( 'NONE', ( #154 ), #140, .T. ) ;
#780 = EDGE_CURVE ( 'NONE', #447, #803, #146, .T. ) ;
#781 = DIRECTION ( 'NONE',  ( -0.0000000000000000000, -1.000000000000000000, -0.0000000000000000000 ) ) ;
#782 = CARTESIAN_POINT ( 'NONE',  ( 0.0000000000000000000, 0.0000000000000000000, 0.0000000000000000000 ) ) ;
#783 = DESIGN_CONTEXT ( 'detailed design', #184, 'design' ) ;
#784 = CARTESIAN_POINT ( 'NONE',  ( 0.0000000000000000000, 0.1758670011244245500, 0.0000000000000000000 ) ) ;
#785 = CARTESIAN_POINT ( 'NONE',  ( 4.592425496802573600E-017, 0.1758670011244245500, 0.3749999999999999400 ) ) ;
#786 = CARTESIAN_POINT ( 'NONE',  ( 2.929027285362272500E-017, 0.0000000000000000000, 0.2391732283464567100 ) ) ;
#787 = CARTESIAN_POINT ( 'NONE',  ( 2.929027285362272500E-017, 1.031552784741635300E-016, 0.2391732283464567100 ) ) ;
#788 = DIRECTION ( 'NONE',  ( 0.0000000000000000000, 0.0000000000000000000, -1.000000000000000000 ) ) ;
#789 = ORIENTED_EDGE ( 'NONE', *, *, #792, .T. ) ;
#790 = DIRECTION ( 'NONE',  ( -0.0000000000000000000, -1.000000000000000000, -0.0000000000000000000 ) ) ;
#791 = ORIENTED_EDGE ( 'NONE', *, *, #643, .F. ) ;
#792 = EDGE_CURVE ( 'NONE', #324, #446, #145, .T. ) ;
#793 = CARTESIAN_POINT ( 'NONE',  ( 0.0000000000000000000, 0.1240682013697756900, 0.0000000000000000000 ) ) ;
#794 = DIRECTION ( 'NONE',  ( 0.0000000000000000000, 0.0000000000000000000, -1.000000000000000000 ) ) ;
#795 = CARTESIAN_POINT ( 'NONE',  ( 7.654042494670951400E-018, 0.1030000000000001100, 0.06249999999999995100 ) ) ;
#796 = DIRECTION ( 'NONE',  ( 0.0000000000000000000, 0.0000000000000000000, 1.000000000000000000 ) ) ;
#797 = CARTESIAN_POINT ( 'NONE',  ( 1.040949779275250700E-017, 1.625000000000000000, -0.08500000000000004800 ) ) ;
#798 = DIRECTION ( 'NONE',  ( 0.0000000000000000000, 0.0000000000000000000, -1.000000000000000000 ) ) ;
#799 = DIRECTION ( 'NONE',  ( -1.000000000000000000, 0.0000000000000000000, 0.0000000000000000000 ) ) ;
#800 = DIRECTION ( 'NONE',  ( 0.0000000000000000000, -1.000000000000000000, -0.0000000000000000000 ) ) ;
#801 = DIRECTION ( 'NONE',  ( 0.0000000000000000000, 0.0000000000000000000, -1.000000000000000000 ) ) ;
#802 = DIRECTION ( 'NONE',  ( -0.0000000000000000000, -1.000000000000000000, -0.0000000000000000000 ) ) ;
#803 = VERTEX_POINT ( 'NONE', #635 ) ;
#804 = CARTESIAN_POINT ( 'NONE',  ( 0.0000000000000000000, 1.625000000000000000, 0.0000000000000000000 ) ) ;
#805 = ORIENTED_EDGE ( 'NONE', *, *, #565, .F. ) ;
#806 = CARTESIAN_POINT ( 'NONE',  ( 0.0000000000000000000, 0.8449999999999999700, 0.0000000000000000000 ) ) ;
#807 = CARTESIAN_POINT ( 'NONE',  ( 0.0000000000000000000, 0.0000000000000000000, -0.3749999999999999400 ) ) ;
#808 = DIRECTION ( 'NONE',  ( 0.0000000000000000000, 0.0000000000000000000, -1.000000000000000000 ) ) ;
#809 = DIRECTION ( 'NONE',  ( -0.0000000000000000000, -1.000000000000000000, -0.0000000000000000000 ) ) ;
#810 = CARTESIAN_POINT ( 'NONE',  ( 4.592425496802573600E-017, 0.0000000000000000000, 0.3749999999999999400 ) ) ;
#811 = EDGE_CURVE ( 'NONE', #332, #405, #141, .T. ) ;
#812 = EDGE_CURVE ( 'NONE', #434, #361, #135, .T. ) ;
#813 = ADVANCED_FACE ( 'NONE', ( #136 ), #131, .T. ) ;
#814 = CARTESIAN_POINT ( 'NONE',  ( 0.0000000000000000000, 0.1758670011244245500, -0.3749999999999999400 ) ) ;
#815 = CARTESIAN_POINT ( 'NONE',  ( 0.0000000000000000000, 0.09509042658110361500, -0.5605511811023621300 ) ) ;
#816 = CARTESIAN_POINT ( 'NONE',  ( 2.929027285362272500E-017, 0.1030000000000001100, 0.2391732283464567100 ) ) ;
#817 = CARTESIAN_POINT ( 'NONE',  ( 7.232166136696965100E-017, 0.0000000000000000000, 0.5905511811023620400 ) ) ;
#818 = DIRECTION ( 'NONE',  ( 0.0000000000000000000, 0.0000000000000000000, -1.000000000000000000 ) ) ;
#819 = CARTESIAN_POINT ( 'NONE',  ( -0.1899999999999998900, 0.4438670011244246800, 0.0000000000000000000 ) ) ;
#820 = DIRECTION ( 'NONE',  ( 0.0000000000000000000, -1.000000000000000000, -0.0000000000000000000 ) ) ;
#821 = DIRECTION ( 'NONE',  ( -0.0000000000000000000, -1.000000000000000000, -0.0000000000000000000 ) ) ;
#822 = CARTESIAN_POINT ( 'NONE',  ( 0.0000000000000000000, 0.1030000000000001100, 0.0000000000000000000 ) ) ;
#823 = DIRECTION ( 'NONE',  ( -0.0000000000000000000, -1.000000000000000000, -0.0000000000000000000 ) ) ;
#824 = DIRECTION ( 'NONE',  ( -0.0000000000000000000, -1.000000000000000000, -0.0000000000000000000 ) ) ;
#825 = DIRECTION ( 'NONE',  ( 0.0000000000000000000, 0.0000000000000000000, -1.000000000000000000 ) ) ;
#826 = DIRECTION ( 'NONE',  ( -0.0000000000000000000, -1.000000000000000000, -0.0000000000000000000 ) ) ;
#827 = DIRECTION ( 'NONE',  ( -0.0000000000000000000, -1.000000000000000000, -0.0000000000000000000 ) ) ;
#828 = CARTESIAN_POINT ( 'NONE',  ( 0.0000000000000000000, 6.012388996081657000E-017, 0.0000000000000000000 ) ) ;
#829 = DIRECTION ( 'NONE',  ( -0.0000000000000000000, -1.000000000000000000, -0.0000000000000000000 ) ) ;
#830 = DIRECTION ( 'NONE',  ( 0.0000000000000000000, 0.0000000000000000000, -1.000000000000000000 ) ) ;
#831 = CARTESIAN_POINT ( 'NONE',  ( 0.0000000000000000000, 0.0000000000000000000, -0.2391732283464567100 ) ) ;
#832 = DIRECTION ( 'NONE',  ( -0.0000000000000000000, -1.000000000000000000, -0.0000000000000000000 ) ) ;
#833 = DIRECTION ( 'NONE',  ( 0.0000000000000000000, 0.0000000000000000000, -1.000000000000000000 ) ) ;
#834 = ORIENTED_EDGE ( 'NONE', *, *, #563, .F. ) ;
#835 = CARTESIAN_POINT ( 'NONE',  ( 0.0000000000000000000, 0.0000000000000000000, 0.0000000000000000000 ) ) ;
#836 = DIRECTION ( 'NONE',  ( -0.0000000000000000000, -1.000000000000000000, -0.0000000000000000000 ) ) ;
#837 = EDGE_CURVE ( 'NONE', #467, #497, #132, .T. ) ;
#838 = EDGE_CURVE ( 'NONE', #497, #447, #133, .T. ) ;
#839 = CARTESIAN_POINT ( 'NONE',  ( 2.189056153475894200E-017, 1.175000000000000000, -0.1675000000000000700 ) ) ;
#840 = CARTESIAN_POINT ( 'NONE',  ( 0.0000000000000000000, 6.012388996081657000E-017, 0.0000000000000000000 ) ) ;
#841 = DIRECTION ( 'NONE',  ( 0.0000000000000000000, 0.0000000000000000000, -1.000000000000000000 ) ) ;
#842 = EDGE_CURVE ( 'NONE', #467, #324, #134, .T. ) ;
#843 = ADVANCED_FACE ( 'NONE', ( #123 ), #129, .T. ) ;
#844 = CARTESIAN_POINT ( 'NONE',  ( 0.0000000000000000000, 0.0000000000000000000, 0.0000000000000000000 ) ) ;
#845 = DIRECTION ( 'NONE',  ( 0.0000000000000000000, 0.0000000000000000000, -1.000000000000000000 ) ) ;
#846 = DIRECTION ( 'NONE',  ( 0.0000000000000000000, 0.0000000000000000000, -1.000000000000000000 ) ) ;
#847 = DIRECTION ( 'NONE',  ( -1.224646799147352200E-016, 0.0000000000000000000, -1.000000000000000000 ) ) ;
#848 = DIRECTION ( 'NONE',  ( 1.000000000000000000, 0.0000000000000000000, -1.224646799147353200E-016 ) ) ;
#849 = CARTESIAN_POINT ( 'NONE',  ( 6.864772096952761200E-017, 0.09509042658110361500, 0.5605511811023621300 ) ) ;
#850 = DIRECTION ( 'NONE',  ( 0.0000000000000000000, -0.7071067811865483500, -0.7071067811865466800 ) ) ;
#851 = PLANE ( 'NONE',  #476 ) ;
#852 = DIRECTION ( 'NONE',  ( 0.0000000000000000000, -0.0000000000000000000, 1.000000000000000000 ) ) ;
#853 = DIRECTION ( 'NONE',  ( 0.0000000000000000000, 1.000000000000000000, 0.0000000000000000000 ) ) ;
#854 = CARTESIAN_POINT ( 'NONE',  ( 0.0000000000000000000, 1.595779220779220700, -0.1392207792207792400 ) ) ;
#855 = EDGE_CURVE ( 'NONE', #467, #470, #122, .T. ) ;
#856 = DIRECTION ( 'NONE',  ( 0.0000000000000000000, 0.0000000000000000000, -1.000000000000000000 ) ) ;
#857 = CARTESIAN_POINT ( 'NONE',  ( 0.0000000000000000000, 1.175000000000000000, 0.1675000000000000700 ) ) ;
#858 = DIRECTION ( 'NONE',  ( -0.0000000000000000000, -1.000000000000000000, -0.0000000000000000000 ) ) ;
#859 = CC_DESIGN_SECURITY_CLASSIFICATION ( #501, ( #60 ) ) ;
#860 = DIRECTION ( 'NONE',  ( -0.0000000000000000000, 1.000000000000000000, -0.0000000000000000000 ) ) ;
#861 = CARTESIAN_POINT ( 'NONE',  ( 0.0000000000000000000, 1.595779220779220500, -0.1392207792207792700 ) ) ;
#862 = EDGE_CURVE ( 'NONE', #470, #343, #127, .T. ) ;
#863 = CARTESIAN_POINT ( 'NONE',  ( 0.0000000000000000000, 6.012388996081657000E-017, -0.5905511811023621500 ) ) ;
#864 = CARTESIAN_POINT ( 'NONE',  ( 0.0000000000000000000, 0.1030000000000001100, -0.06249999999999995100 ) ) ;
#865 = ORIENTED_EDGE ( 'NONE', *, *, #704, .F. ) ;
#866 = DIRECTION ( 'NONE',  ( -0.0000000000000000000, -1.000000000000000000, -0.0000000000000000000 ) ) ;
#867 = CARTESIAN_POINT ( 'NONE',  ( 0.0000000000000000000, 1.625000000000000000, 0.08500000000000004800 ) ) ;
#868 = CARTESIAN_POINT ( 'NONE',  ( 0.0000000000000000000, 0.1030000000000001100, 0.0000000000000000000 ) ) ;
#869 = CARTESIAN_POINT ( 'NONE',  ( 0.0000000000000000000, 0.8449999999999999700, -0.1675000000000000700 ) ) ;
#870 = DIRECTION ( 'NONE',  ( 0.0000000000000000000, 0.0000000000000000000, -1.000000000000000000 ) ) ;
#871 = PLANE ( 'NONE',  #490 ) ;
#872 = ORIENTED_EDGE ( 'NONE', *, *, #599, .T. ) ;
#873 = DIRECTION ( 'NONE',  ( 0.0000000000000000000, 0.0000000000000000000, -1.000000000000000000 ) ) ;
#874 = ORIENTED_EDGE ( 'NONE', *, *, #560, .T. ) ;
#875 = CARTESIAN_POINT ( 'NONE',  ( 0.0000000000000000000, 0.09509042658110361500, 0.0000000000000000000 ) ) ;
#876 = DIRECTION ( 'NONE',  ( 0.0000000000000000000, 0.0000000000000000000, -1.000000000000000000 ) ) ;
#877 = CARTESIAN_POINT ( 'NONE',  ( 0.0000000000000000000, 0.0000000000000000000, 0.0000000000000000000 ) ) ;
#878 = DIRECTION ( 'NONE',  ( -0.0000000000000000000, -1.000000000000000000, -0.0000000000000000000 ) ) ;
#879 = DIRECTION ( 'NONE',  ( -0.0000000000000000000, -1.000000000000000000, -0.0000000000000000000 ) ) ;
#880 = DIRECTION ( 'NONE',  ( 0.0000000000000000000, 0.0000000000000000000, -1.000000000000000000 ) ) ;
#881 = ADVANCED_FACE ( 'NONE', ( #119 ), #113, .T. ) ;
#882 = DIRECTION ( 'NONE',  ( 0.0000000000000000000, 0.0000000000000000000, 1.000000000000000000 ) ) ;
#883 = DIRECTION ( 'NONE',  ( 0.0000000000000000000, -0.0000000000000000000, 1.000000000000000000 ) ) ;
#884 = EDGE_CURVE ( 'NONE', #502, #472, #120, .T. ) ;
#885 = DIRECTION ( 'NONE',  ( -0.0000000000000000000, -1.000000000000000000, -0.0000000000000000000 ) ) ;
#886 = CARTESIAN_POINT ( 'NONE',  ( 0.0000000000000000000, 1.031552784741635300E-016, 0.0000000000000000000 ) ) ;
#887 = EDGE_CURVE ( 'NONE', #497, #343, #144, .T. ) ;
#888 = VERTEX_POINT ( 'NONE', #487 ) ;
#889 = EDGE_CURVE ( 'NONE', #502, #403, #107, .T. ) ;
#890 = EDGE_CURVE ( 'NONE', #518, #472, #110, .T. ) ;
#891 = CARTESIAN_POINT ( 'NONE',  ( 2.326828918379971200E-017, 1.197499999999999800, 0.1900000000000000300 ) ) ;
#892 = DIRECTION ( 'NONE',  ( 0.0000000000000000000, 1.000000000000000000, 0.0000000000000000000 ) ) ;
#893 = VERTEX_POINT ( 'NONE', #515 ) ;
#894 = EDGE_CURVE ( 'NONE', #372, #543, #116, .T. ) ;
#895 = DIRECTION ( 'NONE',  ( 0.0000000000000000000, 1.000000000000000000, 0.0000000000000000000 ) ) ;
#896 = DIRECTION ( 'NONE',  ( -0.0000000000000000000, -1.000000000000000000, -0.0000000000000000000 ) ) ;
#897 = EDGE_CURVE ( 'NONE', #543, #343, #105, .T. ) ;
#898 = CARTESIAN_POINT ( 'NONE',  ( 2.326828918379969900E-017, 0.4438670011244246800, 0.1899999999999998900 ) ) ;
#899 = CARTESIAN_POINT ( 'NONE',  ( 0.0000000000000000000, 0.0000000000000000000, 0.0000000000000000000 ) ) ;
#900 = EDGE_CURVE ( 'NONE', #372, #470, #102, .T. ) ;
#901 = EDGE_CURVE ( 'NONE', #472, #543, #99, .T. ) ;
#902 = CARTESIAN_POINT ( 'NONE',  ( 0.0000000000000000000, 0.8449999999999999700, 0.0000000000000000000 ) ) ;
#903 = VERTEX_POINT ( 'NONE', #398 ) ;
#904 = EDGE_CURVE ( 'NONE', #518, #372, #96, .T. ) ;
#905 = VERTEX_POINT ( 'NONE', #336 ) ;
#906 = DIRECTION ( 'NONE',  ( 0.0000000000000000000, 0.0000000000000000000, -1.000000000000000000 ) ) ;
#907 = EDGE_CURVE ( 'NONE', #903, #434, #92, .T. ) ;
#908 = EDGE_CURVE ( 'NONE', #424, #491, #112, .T. ) ;
#909 = EDGE_CURVE ( 'NONE', #424, #361, #86, .T. ) ;
#910 = DIRECTION ( 'NONE',  ( 0.0000000000000000000, 0.0000000000000000000, -1.000000000000000000 ) ) ;
#911 = DIRECTION ( 'NONE',  ( 0.0000000000000000000, 0.0000000000000000000, -1.000000000000000000 ) ) ;
#912 = DIRECTION ( 'NONE',  ( 0.0000000000000000000, 0.0000000000000000000, -1.000000000000000000 ) ) ;
#913 = EDGE_LOOP ( 'NONE', ( #396, #397, #400, #402 ) ) ;
#914 = CARTESIAN_POINT ( 'NONE',  ( 0.0000000000000000000, 0.09509042658110361500, -0.5905511811023620400 ) ) ;
#915 = DIRECTION ( 'NONE',  ( 0.0000000000000000000, 1.000000000000000000, 0.0000000000000000000 ) ) ;
#916 = CARTESIAN_POINT ( 'NONE',  ( 6.959860671495712400E-017, 0.1240682013697756900, 0.5683157524554376400 ) ) ;
#917 = DIRECTION ( 'NONE',  ( -0.0000000000000000000, -1.000000000000000000, -0.0000000000000000000 ) ) ;
#918 = CARTESIAN_POINT ( 'NONE',  ( 0.0000000000000000000, 1.031552784741635300E-016, 0.0000000000000000000 ) ) ;
#919 = CARTESIAN_POINT ( 'NONE',  ( 7.232166136696967600E-017, 6.012388996081657000E-017, 0.5905511811023621500 ) ) ;
#920 = EDGE_CURVE ( 'NONE', #410, #542, #89, .T. ) ;
#921 = DIRECTION ( 'NONE',  ( 0.0000000000000000000, 0.0000000000000000000, -1.000000000000000000 ) ) ;
#922 = DIRECTION ( 'NONE',  ( -0.0000000000000000000, -1.000000000000000000, -0.0000000000000000000 ) ) ;
#923 = CARTESIAN_POINT ( 'NONE',  ( 0.0000000000000000000, 1.375000000000000000, 0.0000000000000000000 ) ) ;
#924 = DIRECTION ( 'NONE',  ( -0.0000000000000000000, -1.000000000000000000, -0.0000000000000000000 ) ) ;
#925 = CARTESIAN_POINT ( 'NONE',  ( 0.0000000000000000000, 1.625000000000000000, 0.0000000000000000000 ) ) ;
#926 = CARTESIAN_POINT ( 'NONE',  ( 2.326828918379971200E-017, 1.375000000000000000, 0.1900000000000000300 ) ) ;
#927 = DIRECTION ( 'NONE',  ( -0.0000000000000000000, -1.000000000000000000, -0.0000000000000000000 ) ) ;
#928 = CARTESIAN_POINT ( 'NONE',  ( 0.0000000000000000000, 1.595779220779220500, 0.0000000000000000000 ) ) ;
#929 = DIRECTION ( 'NONE',  ( 0.0000000000000000000, 0.0000000000000000000, -1.000000000000000000 ) ) ;
#930 = DIRECTION ( 'NONE',  ( 0.0000000000000000000, 0.0000000000000000000, -1.000000000000000000 ) ) ;
#931 = DIRECTION ( 'NONE',  ( -0.0000000000000000000, -1.000000000000000000, -0.0000000000000000000 ) ) ;
#932 = CARTESIAN_POINT ( 'NONE',  ( 0.0000000000000000000, 0.1030000000000001100, 0.0000000000000000000 ) ) ;
#933 = CARTESIAN_POINT ( 'NONE',  ( 0.0000000000000000000, 1.625000000000000000, 0.0000000000000000000 ) ) ;
#934 = ADVANCED_FACE ( 'NONE', ( #76 ), #49, .T. ) ;
#935 = DIRECTION ( 'NONE',  ( -0.0000000000000000000, -1.000000000000000000, -0.0000000000000000000 ) ) ;
#936 = ADVANCED_FACE ( 'NONE', ( #55 ), #45, .T. ) ;
#937 = DIRECTION ( 'NONE',  ( 0.0000000000000000000, 0.0000000000000000000, -1.000000000000000000 ) ) ;
#938 = CARTESIAN_POINT ( 'NONE',  ( 0.0000000000000000000, 1.602499999999999800, 0.0000000000000000000 ) ) ;
#939 = CARTESIAN_POINT ( 'NONE',  ( 0.0000000000000000000, 0.1030000000000001100, -0.2391732283464567100 ) ) ;
#940 = DIRECTION ( 'NONE',  ( 0.0000000000000000000, 0.0000000000000000000, -1.000000000000000000 ) ) ;
#941 = DIRECTION ( 'NONE',  ( 0.0000000000000000000, 0.0000000000000000000, 1.000000000000000000 ) ) ;
#942 = ADVANCED_FACE ( 'NONE', ( #57 ), #43, .T. ) ;
#943 = CARTESIAN_POINT ( 'NONE',  ( 0.0000000000000000000, 0.4438670011244246800, 0.0000000000000000000 ) ) ;
#944 = DIRECTION ( 'NONE',  ( 0.0000000000000000000, 0.0000000000000000000, -1.000000000000000000 ) ) ;
#945 = DIRECTION ( 'NONE',  ( -0.0000000000000000000, 1.000000000000000000, -0.0000000000000000000 ) ) ;
#946 = PLANE ( 'NONE',  #454 ) ;
#947 = DIRECTION ( 'NONE',  ( 0.0000000000000000000, 0.0000000000000000000, -1.000000000000000000 ) ) ;
#948 = CARTESIAN_POINT ( 'NONE',  ( 7.654042494670951400E-018, 0.0000000000000000000, 0.06249999999999995100 ) ) ;
#949 = ORIENTED_EDGE ( 'NONE', *, *, #900, .T. ) ;
#950 = CARTESIAN_POINT ( 'NONE',  ( -0.5905511811023621500, 8.163958421749003600E-017, 0.0000000000000000000 ) ) ;
#951 = DIRECTION ( 'NONE',  ( 0.0000000000000000000, 0.0000000000000000000, -1.000000000000000000 ) ) ;
#952 = CARTESIAN_POINT ( 'NONE',  ( 0.0000000000000000000, 0.0000000000000000000, 0.0000000000000000000 ) ) ;
#953 = CARTESIAN_POINT ( 'NONE',  ( 0.0000000000000000000, 0.1240682013697756900, -0.5683157524554376400 ) ) ;
#954 = DIRECTION ( 'NONE',  ( -0.0000000000000000000, -1.000000000000000000, -0.0000000000000000000 ) ) ;
#955 = CARTESIAN_POINT ( 'NONE',  ( 0.0000000000000000000, 0.8449999999999999700, 0.0000000000000000000 ) ) ;
#956 = DIRECTION ( 'NONE',  ( -0.0000000000000000000, -1.000000000000000000, -0.0000000000000000000 ) ) ;
#957 = CARTESIAN_POINT ( 'NONE',  ( 0.0000000000000000000, 1.175000000000000000, 0.0000000000000000000 ) ) ;
#958 = ORIENTED_EDGE ( 'NONE', *, *, #723, .F. ) ;
#959 = ORIENTED_EDGE ( 'NONE', *, *, #565, .T. ) ;
#960 = CARTESIAN_POINT ( 'NONE',  ( 0.0000000000000000000, 1.625000000000000000, 0.0000000000000000000 ) ) ;
#961 = ORIENTED_EDGE ( 'NONE', *, *, #545, .F. ) ;
#962 = CARTESIAN_POINT ( 'NONE',  ( 0.0000000000000000000, 0.0000000000000000000, 0.0000000000000000000 ) ) ;
#963 = CLOSED_SHELL ( 'NONE', ( #66, #414, #603, #439, #942, #348, #65, #27, #378, #54, #486, #813, #679, #738, #575, #14, #64, #422, #694, #559, #576, #934, #78, #420, #31, #340, #843, #881, #779, #71, #747, #39, #936, #21 ) ) ;
#964 = DIRECTION ( 'NONE',  ( -0.0000000000000000000, -1.000000000000000000, -0.0000000000000000000 ) ) ;
#965 = CARTESIAN_POINT ( 'NONE',  ( 0.0000000000000000000, 0.0000000000000000000, -0.5905511811023620400 ) ) ;
#966 = CARTESIAN_POINT ( 'NONE',  ( 0.0000000000000000000, 0.4438670011244246800, 0.0000000000000000000 ) ) ;
ENDSEC;
END-ISO-10303-21;
